<?xml version="1.0" encoding="utf-8"?>
<!-- Generator: Adobe Illustrator 18.1.0, SVG Export Plug-In . SVG Version: 6.00 Build 0)  -->
<!DOCTYPE svg PUBLIC "-//W3C//DTD SVG 1.1//EN" "http://www.w3.org/Graphics/SVG/1.1/DTD/svg11.dtd">
<svg version="1.1" id="Laag_1" xmlns="http://www.w3.org/2000/svg" xmlns:xlink="http://www.w3.org/1999/xlink" x="0px" y="0px"
	 width="300px" height="300px" viewBox="0 0 300 300" enable-background="new 0 0 300 300" xml:space="preserve">
<g>
	<path d="M299.9,188.8c-0.9,23.3-8,42-21.3,56.1c-13.2,14.1-29,21.1-47.2,21.1c-14.8,0-27.8-6.9-39-20.6
		c-11.2-13.8-16.8-34.9-16.8-63.5c0-6.3,0.2-12.3,0.6-18c0.4-5.7,0.8-11.1,1.4-16.2l9.9-74.2h-65.1
		c-11.3,93.8-20.5,149.7-27.7,167.5c-7.2,17.8-19.5,26.7-36.8,26.7c-7.3,0-14.3-2.3-20.8-7c-6.6-4.7-9.9-10.8-9.9-18.5
		c0-6.9,6.8-16.6,20.4-29c13.6-12.4,21.2-23.7,22.7-33.9L87.2,73.3H59.9c-7.5,0-14.9,1.5-22.1,4.4C30.6,80.6,25.3,84,21.9,88
		L9.8,102.4h-9.9c9.2-22.9,20.5-40,33.9-51.5c13.4-11.5,28.9-17.3,46.3-17.3h215.2v39.7h-72.7c-2.3,18-4,36.1-5.2,54.1
		c-1.2,18-1.8,36.2-1.8,54.4c0,12.3,3.6,22.3,10.7,30c7.1,7.7,16.1,11.5,26.8,11.5c6.6,0,13.5-2.1,20.7-6.4
		c7.2-4.3,11.3-9.9,12.3-16.8c0.6-3.3,1-5.9,1.3-7.8c0.3-1.9,0.4-3,0.4-3.5H299.9z"/>
</g>
</svg>
