<?xml version="1.0" encoding="utf-8"?>
<!-- Generator: Adobe Illustrator 18.0.0, SVG Export Plug-In . SVG Version: 6.00 Build 0)  -->
<!DOCTYPE svg PUBLIC "-//W3C//DTD SVG 1.1//EN" "http://www.w3.org/Graphics/SVG/1.1/DTD/svg11.dtd">
<svg version="1.1" id="Layer_1" xmlns="http://www.w3.org/2000/svg" xmlns:xlink="http://www.w3.org/1999/xlink" x="0px" y="0px"
	 viewBox="0 0 158.3 40.7" enable-background="new 0 0 158.3 40.7" xml:space="preserve">
<g>
	<path fill="#FFFFFF" d="M65.3,23.2h-6.6v11.4h-4.4v-29h11c5.7,0,9.3,3.7,9.3,8.8S71,23.2,65.3,23.2z M65.1,9.6h-6.3v9.6h6.3
		c3.1,0,5.1-1.7,5.1-4.8C70.2,11.4,68.1,9.6,65.1,9.6z"/>
	<path fill="#FFFFFF" d="M84,34.6c-3.9,0-5.7-2.6-5.7-5.7V5.6h4.1v23c0,1.6,0.6,2.4,2.2,2.4h1.8v3.5H84z"/>
	<path fill="#FFFFFF" d="M104.8,32.4c-1.3,1.4-3.4,2.4-6.2,2.4c-2.8,0-4.8-1.1-6.1-2.4c-2-2-2.4-4.6-2.4-8.1c0-3.5,0.5-6.1,2.4-8.1
		c1.3-1.4,3.3-2.4,6.1-2.4c2.8,0,4.8,1.1,6.2,2.4c2,2,2.4,4.6,2.4,8.1C107.2,27.8,106.7,30.4,104.8,32.4z M101.6,18.6
		c-0.8-0.8-1.8-1.2-3.1-1.2c-1.2,0-2.2,0.4-3,1.2c-1.3,1.3-1.4,3.4-1.4,5.7s0.2,4.4,1.4,5.7c0.8,0.8,1.8,1.2,3,1.2
		c1.2,0,2.3-0.4,3.1-1.2c1.3-1.3,1.4-3.4,1.4-5.7S102.9,19.9,101.6,18.6z"/>
	<path fill="#FFFFFF" d="M123.6,34.6V22c0-3.2-1.8-4.6-4.1-4.6s-4.3,1.4-4.3,4.6v12.6h-4.1V14h4.1V16c1.4-1.5,3.4-2.3,5.5-2.3
		c2.1,0,3.9,0.7,5.1,1.9c1.6,1.5,2.1,3.5,2.1,5.8v13.2L123.6,34.6L123.6,34.6z"/>
	<path fill="#FFFFFF" d="M135.8,25.5c0,3.5,1.9,5.8,5.2,5.8c2.3,0,3.5-0.6,5-2.1l2.6,2.5c-2.1,2.1-4.1,3.2-7.7,3.2
		c-5.2,0-9.3-2.7-9.3-10.6c0-6.7,3.5-10.5,8.7-10.5c5.5,0,8.7,4.1,8.7,9.9v1.8C149.2,25.5,135.8,25.5,135.8,25.5z M144.5,19.8
		c-0.6-1.5-2.1-2.6-4.1-2.6c-2,0-3.5,1.1-4.1,2.6c-0.4,0.9-0.5,1.5-0.5,2.8h9.3C145,21.3,144.9,20.7,144.5,19.8z"/>
	<circle fill="#FFFFFF" cx="17.8" cy="11.5" r="4.4"/>
	<path fill="#FFFFFF" d="M31.2,20.3c0,2.4-2,4.4-4.4,4.4c-2.4,0-4.4-2-4.4-4.4c0-2.4,2-4.4,4.4-4.4C29.2,15.9,31.2,17.9,31.2,20.3z"
		/>
	<circle fill="#FFFFFF" cx="17.8" cy="29.1" r="4.4"/>
	<g>
		<path fill="#FFFFFF" d="M20.4,0C9.2,0,0.1,9.1,0.1,20.3c0,11.2,9.1,20.3,20.3,20.3c11.2,0,20.3-9.1,20.3-20.3
			C40.8,9.1,31.7,0,20.4,0z M31.9,31.7c-2.9,2.9-7,4.7-11.4,4.7c-4.5,0-8.5-1.8-11.4-4.7c-2.9-2.9-4.7-7-4.7-11.4
			c0-4.5,1.8-8.5,4.7-11.4c2.9-2.9,7-4.7,11.5-4.7c4.5,0,8.5,1.8,11.5,4.7c2.9,2.9,4.7,7,4.7,11.4C36.6,24.8,34.8,28.8,31.9,31.7z"
			/>
	</g>
	<g>
		<path fill="#FFFFFF" d="M154,9.9c-1.2,0-2.2,1-2.2,2.2c0,1.2,1,2.2,2.2,2.2c1.2,0,2.2-1,2.2-2.2S155.2,9.9,154,9.9z M154,14
			c-1,0-1.8-0.8-1.8-1.9c0-1,0.8-1.8,1.8-1.9c1,0,1.9,0.8,1.9,1.9C155.8,13.1,155,14,154,14z"/>
	</g>
	<g>
		<path fill="#FFFFFF" d="M154.5,13.4l-0.5-1.1h-0.5v1.1h-0.4v-2.6h1c0.5,0,0.8,0.3,0.8,0.8c0,0.4-0.2,0.6-0.5,0.7l0.6,1.1
			L154.5,13.4L154.5,13.4z M154.1,11.2h-0.6V12h0.6c0.3,0,0.4-0.1,0.4-0.4S154.3,11.2,154.1,11.2z"/>
	</g>
</g>
</svg>
