<?xml version="1.0" encoding="utf-8"?>
<!-- Generator: Adobe Illustrator 18.0.0, SVG Export Plug-In . SVG Version: 6.00 Build 0)  -->
<!DOCTYPE svg PUBLIC "-//W3C//DTD SVG 1.1//EN" "http://www.w3.org/Graphics/SVG/1.1/DTD/svg11.dtd">
<svg version="1.1" id="Layer_1" xmlns="http://www.w3.org/2000/svg" xmlns:xlink="http://www.w3.org/1999/xlink" x="0px" y="0px"
	 viewBox="0.6 156.6 946.7 246.2" enable-background="new 0.6 156.6 946.7 246.2" xml:space="preserve">
<g>
	<path d="M396,297.3h-40v69.1h-26.7V190.5H396c34.6,0,56.4,22.4,56.4,53.4S430.6,297.3,396,297.3z M394.8,214.8h-38.2V273h38.2
		c18.8,0,30.9-10.3,30.9-29.1C425.7,225.7,413,214.8,394.8,214.8z"/>
	<path d="M509.4,366.4c-23.7,0-34.6-15.8-34.6-34.6V190.5h24.9V330c0,9.7,3.6,14.6,13.3,14.6H524v21.2h-14.6V366.4z"/>
	<path d="M635.6,353.1c-7.9,8.5-20.6,14.6-37.6,14.6c-17,0-29.1-6.7-37-14.6c-12.1-12.1-14.6-27.9-14.6-49.1c0-21.2,3-37,14.6-49.1
		c7.9-8.5,20-14.6,37-14.6s29.1,6.7,37.6,14.6c12.1,12.1,14.6,27.9,14.6,49.1C650.1,325.2,647.1,340.9,635.6,353.1z M616.1,269.4
		c-4.9-4.9-10.9-7.3-18.8-7.3c-7.3,0-13.3,2.4-18.2,7.3c-7.9,7.9-8.5,20.6-8.5,34.6s1.2,26.7,8.5,34.6c4.9,4.9,10.9,7.3,18.2,7.3
		s13.9-2.4,18.8-7.3c7.9-7.9,8.5-20.6,8.5-34.6S624,277.3,616.1,269.4z"/>
	<path d="M749.6,366.4V290c0-19.4-10.9-27.9-24.9-27.9c-13.9,0-26.1,8.5-26.1,27.9v76.4h-24.9V241.5h24.9v12.1
		c8.5-9.1,20.6-13.9,33.4-13.9s23.7,4.2,30.9,11.5c9.7,9.1,12.7,21.2,12.7,35.2v80.1H749.6L749.6,366.4z"/>
	<path d="M823.6,311.2c0,21.2,11.5,35.2,31.5,35.2c13.9,0,21.2-3.6,30.3-12.7l15.8,15.2c-12.7,12.7-24.9,19.4-46.7,19.4
		c-31.5,0-56.4-16.4-56.4-64.3c0-40.6,21.2-63.7,52.8-63.7c33.4,0,52.8,24.9,52.8,60v10.9C904.8,311.2,823.6,311.2,823.6,311.2z
		 M876.3,276.7c-3.6-9.1-12.7-15.8-24.9-15.8c-12.1,0-21.2,6.7-24.9,15.8c-2.4,5.5-3,9.1-3,17h56.4
		C879.3,285.8,878.7,282.1,876.3,276.7z"/>
	<circle cx="107.9" cy="226.3" r="26.7"/>
	<path d="M189.2,279.7c0,14.6-12.1,26.7-26.7,26.7s-26.7-12.1-26.7-26.7c0-14.6,12.1-26.7,26.7-26.7S189.2,265.1,189.2,279.7z"/>
	<circle cx="107.9" cy="333.1" r="26.7"/>
	<g>
		<path d="M123.7,156.6c-67.9,0-123.1,55.2-123.1,123.1s55.2,123.1,123.1,123.1s123.1-55.2,123.1-123.1
			C247.4,211.8,192.2,156.6,123.7,156.6z M193.5,348.8c-17.6,17.6-42.5,28.5-69.1,28.5c-27.3,0-51.5-10.9-69.1-28.5
			s-28.5-42.5-28.5-69.1c0-27.3,10.9-51.5,28.5-69.1s42.5-28.5,69.7-28.5s51.5,10.9,69.7,28.5c17.6,17.6,28.5,42.5,28.5,69.1
			C222,307,211,331.2,193.5,348.8z"/>
	</g>
	<g>
		<path d="M933.9,216.6c-7.3,0-13.3,6.1-13.3,13.3s6.1,13.3,13.3,13.3s13.3-6.1,13.3-13.3S941.2,216.6,933.9,216.6z M933.9,241.5
			c-6.1,0-10.9-4.9-10.9-11.5c0-6.1,4.9-10.9,10.9-11.5c6.1,0,11.5,4.9,11.5,11.5C944.8,236,940,241.5,933.9,241.5z"/>
	</g>
	<g>
		<path d="M937,237.9l-3-6.7h-3v6.7h-2.4v-15.8h6.1c3,0,4.9,1.8,4.9,4.9c0,2.4-1.2,3.6-3,4.2l3.6,6.7H937L937,237.9z M934.5,224.5
			h-3.6v4.9h3.6c1.8,0,2.4-0.6,2.4-2.4S935.7,224.5,934.5,224.5z"/>
	</g>
</g>
</svg>
