<?xml version="1.0" encoding="utf-8"?>
<!-- Generator: Adobe Illustrator 18.1.1, SVG Export Plug-In . SVG Version: 6.00 Build 0)  -->
<svg version="1.1" id="Capa_1" xmlns="http://www.w3.org/2000/svg" xmlns:xlink="http://www.w3.org/1999/xlink" x="0px" y="0px"
	 viewBox="-100.7 0.7 512 512" enable-background="new -100.7 0.7 512 512" xml:space="preserve">
<path fill="#FFFFFF" d="M140,200.5c0-1.9-1.5-3.4-3.4-3.4H65.2c-1.9,0-3.4,1.5-3.4,3.4v40.4c0,1.9,1.5,3.4,3.4,3.4h71.4
	c1.9,0,3.4-1.5,3.4-3.4V200.5L140,200.5z M63.6,315.4c0,1.4,1.1,2.6,2.6,2.6h145.4c1.4,0,2.6-1.1,2.6-2.6v-5.2
	c0-1.4-1.1-2.6-2.6-2.6H66.2c-1.4,0-2.6,1.1-2.6,2.6V315.4z M63.6,278.5c0,1.4,1.1,2.6,2.6,2.6h145.4c1.4,0,2.6-1.1,2.6-2.6v-5.2
	c0-1.4-1.1-2.6-2.6-2.6H66.2c-1.4,0-2.6,1.1-2.6,2.6V278.5z M162.5,204.9c0,1.4,1.1,2.6,2.6,2.6h46.4c1.4,0,2.6-1.1,2.6-2.6v-5.2
	c0-1.4-1.1-2.6-2.6-2.6H165c-1.4,0-2.6,1.1-2.6,2.6L162.5,204.9L162.5,204.9z M162.5,241.7c0,1.4,1.1,2.6,2.6,2.6h46.4
	c1.4,0,2.6-1.1,2.6-2.6v-5.2c0-1.4-1.1-2.6-2.6-2.6H165c-1.4,0-2.6,1.1-2.6,2.6L162.5,241.7L162.5,241.7z M276,199.9
	c-2.3-2.8-5.8-4.4-9.7-4.4h-8.1c0,0-3-0.1-3,2.4c0,1.4,0,4.2,0,5.5c0,2.4,3,2.4,3,2.4h8.1c0.7,0,1.3,0.2,1.7,0.6
	c0.3,0.4,0.4,1,0.3,1.7c0,0-17.3,65.6-23.2,87.7c-0.1,0.3-0.5,0.1-0.5-0.2c0-31.2,0-123.6,0-123.6c0-7.7-6.3-14-14-14H46
	c-7.7,0-14,6.3-14,14v169.2c0,7.7,6.3,14,14,14h184.5c4.7,0,8.8-2.3,11.3-5.8c1.6-1.2,2.8-3.4,3.5-6.6l33-132.6
	C279.1,206.5,278.3,202.7,276,199.9z M234.1,341.3c0,2-1.6,3.6-3.6,3.6H46c-2,0-3.6-1.6-3.6-3.6V172.1c0-2,1.7-3.6,3.6-3.6h184.5
	c2,0,3.6,1.7,3.6,3.6V341.3z"/>
</svg>
