<?xml version="1.0" encoding="utf-8"?>
<!-- Generator: Adobe Illustrator 15.0.2, SVG Export Plug-In . SVG Version: 6.00 Build 0)  -->
<!DOCTYPE svg PUBLIC "-//W3C//DTD SVG 1.1//EN" "http://www.w3.org/Graphics/SVG/1.1/DTD/svg11.dtd">
<svg version="1.1" xmlns="http://www.w3.org/2000/svg" xmlns:xlink="http://www.w3.org/1999/xlink" x="0px" y="0px"
	 width="616.232px" height="305.47px" viewBox="0 0 616.232 305.47" enable-background="new 0 0 616.232 305.47"
	 xml:space="preserve">
<g id="Full_color">
	<g>
		<g>
			<g>
				<path fill="#87888A" d="M56.988,233.065c2.228,1.803,4.508,3.076,7.584,3.076c3.395,0,5.092-1.804,5.092-4.031
					c0-2.652-3.076-3.819-5.887-4.88c-3.66-1.326-7.691-3.076-7.691-7.426c0-4.137,3.289-7.319,8.858-7.319
					c3.235,0,6.046,1.326,8.009,2.918l-2.068,2.758c-1.75-1.326-3.607-2.281-5.887-2.281c-3.236,0-4.721,1.751-4.721,3.713
					c0,2.44,2.811,3.342,5.728,4.456c3.713,1.379,7.85,2.917,7.85,7.796c0,4.19-3.342,7.691-9.441,7.691
					c-3.66,0-7.161-1.538-9.6-3.554L56.988,233.065z"/>
				<path fill="#87888A" d="M83.827,213.122h3.607l0.371,3.713h0.159c2.228-2.439,4.933-4.35,8.009-4.35
					c3.925,0,6.047,1.856,7.107,4.933c2.705-2.917,5.357-4.933,8.486-4.933c5.304,0,7.85,3.501,7.85,10.078v16.336h-4.35v-15.753
					c0-4.826-1.538-6.895-4.773-6.895c-2.016,0-4.084,1.325-6.471,3.978v18.67h-4.349v-15.753c0-4.826-1.538-6.895-4.827-6.895
					c-1.91,0-4.084,1.325-6.471,3.978v18.67h-4.35V213.122z"/>
				<path fill="#87888A" d="M146.31,222.563c0-3.289-1.114-6.471-5.304-6.471c-3.023,0-5.675,1.379-7.691,2.758l-1.75-3.023
					c2.387-1.538,5.994-3.342,10.131-3.342c6.312,0,8.963,4.19,8.963,10.608v15.806h-3.606l-0.371-3.076h-0.106
					c-2.493,2.016-5.357,3.713-8.539,3.713c-4.35,0-7.585-2.705-7.585-7.319C130.451,226.594,135.331,223.783,146.31,222.563z
					 M139.255,236.035c2.493,0,4.562-1.22,7.054-3.447v-7.16c-8.646,1.061-11.562,3.182-11.562,6.471
					C134.747,234.815,136.709,236.035,139.255,236.035z"/>
			</g>
			<g>
				<path fill="#87888A" d="M160.26,213.122h3.607l0.371,4.668h0.159c1.75-3.235,4.402-5.305,7.319-5.305
					c1.114,0,1.91,0.159,2.758,0.53l-0.849,3.819c-0.849-0.266-1.432-0.425-2.493-0.425c-2.174,0-4.773,1.592-6.524,5.941v16.548
					h-4.349V213.122z"/>
			</g>
			<g>
				<path fill="#87888A" d="M183.546,216.676h-3.819v-3.288l4.031-0.266l0.531-7.213h3.66v7.213h6.948v3.554h-6.948v14.32
					c0,3.183,1.008,4.986,3.978,4.986c0.901,0,2.068-0.371,2.917-0.689l0.849,3.288c-1.432,0.478-3.182,0.955-4.773,0.955
					c-5.516,0-7.373-3.501-7.373-8.593V216.676z"/>
			</g>
			<g>
				<path fill="#87888A" d="M233.297,212.485c3.395,0,5.781,1.433,7.532,3.077l-2.175,2.811c-1.538-1.326-3.129-2.28-5.198-2.28
					c-4.667,0-8.062,4.03-8.062,9.971c0,5.888,3.235,9.866,7.956,9.866c2.439,0,4.508-1.221,6.046-2.6l1.962,2.864
					c-2.334,2.068-5.304,3.342-8.38,3.342c-6.842,0-12.093-4.933-12.093-13.473C220.886,217.418,226.667,212.485,233.297,212.485z"
					/>
			</g>
			<g>
				<path fill="#87888A" d="M260.19,212.485c6.312,0,11.934,4.933,11.934,13.578c0,8.54-5.622,13.473-11.934,13.473
					c-6.312,0-11.934-4.933-11.934-13.473C248.256,217.418,253.878,212.485,260.19,212.485z M260.19,235.93
					c4.456,0,7.426-3.979,7.426-9.866c0-5.94-2.97-9.971-7.426-9.971c-4.402,0-7.425,4.03-7.425,9.971
					C252.765,231.951,255.788,235.93,260.19,235.93z"/>
				<path fill="#87888A" d="M282.839,201.135h4.349v32.885c0,1.379,0.583,1.91,1.22,1.91c0.265,0,0.477,0,0.955-0.106l0.583,3.288
					c-0.583,0.266-1.326,0.425-2.493,0.425c-3.288,0-4.614-2.068-4.614-5.835V201.135z"/>
				<path fill="#87888A" d="M300.29,201.135h4.35v32.885c0,1.379,0.583,1.91,1.22,1.91c0.265,0,0.478,0,0.955-0.106l0.583,3.288
					c-0.583,0.266-1.326,0.425-2.493,0.425c-3.289,0-4.615-2.068-4.615-5.835V201.135z"/>
				<path fill="#87888A" d="M332.326,222.563c0-3.289-1.114-6.471-5.304-6.471c-3.023,0-5.676,1.379-7.691,2.758l-1.75-3.023
					c2.387-1.538,5.993-3.342,10.131-3.342c6.312,0,8.963,4.19,8.963,10.608v15.806h-3.606l-0.371-3.076h-0.106
					c-2.492,2.016-5.356,3.713-8.539,3.713c-4.35,0-7.585-2.705-7.585-7.319C316.467,226.594,321.347,223.783,332.326,222.563z
					 M325.271,236.035c2.493,0,4.562-1.22,7.055-3.447v-7.16c-8.646,1.061-11.562,3.182-11.562,6.471
					C320.764,234.815,322.726,236.035,325.271,236.035z"/>
				<path fill="#87888A" d="M348.822,201.135h4.35v10.29l-0.106,4.668c2.334-2.069,5.198-3.607,8.062-3.607
					c6.683,0,10.236,5.146,10.236,13.102c0,8.804-5.251,13.949-11.138,13.949c-2.388,0-5.092-1.167-7.373-3.183h-0.159l-0.371,2.546
					h-3.501V201.135z M359.483,235.876c4.243,0,7.373-3.872,7.373-10.236c0-5.676-1.91-9.494-6.789-9.494
					c-2.175,0-4.456,1.22-6.896,3.501v13.524C355.452,235.134,357.786,235.876,359.483,235.876z"/>
				<path fill="#87888A" d="M392.21,212.485c6.312,0,11.935,4.933,11.935,13.578c0,8.54-5.622,13.473-11.935,13.473
					c-6.312,0-11.934-4.933-11.934-13.473C380.276,217.418,385.898,212.485,392.21,212.485z M392.21,235.93
					c4.456,0,7.426-3.979,7.426-9.866c0-5.94-2.97-9.971-7.426-9.971c-4.402,0-7.425,4.03-7.425,9.971
					C384.785,231.951,387.808,235.93,392.21,235.93z"/>
			</g>
			<g>
				<path fill="#87888A" d="M412.738,213.122h3.606l0.371,4.668h0.159c1.75-3.235,4.402-5.305,7.319-5.305
					c1.114,0,1.909,0.159,2.758,0.53l-0.849,3.819c-0.849-0.266-1.432-0.425-2.492-0.425c-2.175,0-4.773,1.592-6.524,5.941v16.548
					h-4.349V213.122z"/>
			</g>
			<g>
				<path fill="#87888A" d="M448.33,222.563c0-3.289-1.114-6.471-5.305-6.471c-3.023,0-5.675,1.379-7.69,2.758l-1.75-3.023
					c2.387-1.538,5.993-3.342,10.13-3.342c6.312,0,8.964,4.19,8.964,10.608v15.806h-3.606l-0.371-3.076h-0.106
					c-2.493,2.016-5.356,3.713-8.539,3.713c-4.35,0-7.585-2.705-7.585-7.319C432.471,226.594,437.351,223.783,448.33,222.563z
					 M441.275,236.035c2.493,0,4.562-1.22,7.055-3.447v-7.16c-8.646,1.061-11.563,3.182-11.563,6.471
					C436.767,234.815,438.729,236.035,441.275,236.035z"/>
			</g>
			<g>
				<path fill="#87888A" d="M463.766,216.676h-3.818v-3.288l4.03-0.266l0.53-7.213h3.66v7.213h6.948v3.554h-6.948v14.32
					c0,3.183,1.008,4.986,3.978,4.986c0.902,0,2.069-0.371,2.918-0.689l0.849,3.288c-1.433,0.478-3.183,0.955-4.774,0.955
					c-5.516,0-7.372-3.501-7.372-8.593V216.676z"/>
				<path fill="#87888A" d="M484.081,205.007c0-1.697,1.326-2.811,3.023-2.811s3.022,1.113,3.022,2.811
					c0,1.645-1.325,2.812-3.022,2.812S484.081,206.651,484.081,205.007z M484.876,213.122h4.35v25.777h-4.35V213.122z"/>
				<path fill="#87888A" d="M511.874,212.485c6.312,0,11.934,4.933,11.934,13.578c0,8.54-5.622,13.473-11.934,13.473
					s-11.935-4.933-11.935-13.473C499.939,217.418,505.562,212.485,511.874,212.485z M511.874,235.93
					c4.455,0,7.425-3.979,7.425-9.866c0-5.94-2.97-9.971-7.425-9.971c-4.402,0-7.426,4.03-7.426,9.971
					C504.448,231.951,507.472,235.93,511.874,235.93z"/>
				<path fill="#87888A" d="M534.523,213.122h3.606l0.371,3.713h0.159c2.439-2.439,5.092-4.35,8.646-4.35
					c5.41,0,7.85,3.501,7.85,10.078v16.336h-4.35v-15.753c0-4.826-1.484-6.895-4.879-6.895c-2.652,0-4.456,1.379-7.055,3.978v18.67
					h-4.349V213.122z"/>
			</g>
		</g>
		<path fill="#87888A" d="M382.213,89.349c4.51,0,8.303,0.564,11.385,1.691c3.08,1.127,5.541,2.705,7.383,4.733
			c1.84,2.028,3.156,4.491,3.945,7.382c0.787,2.895,1.182,6.069,1.182,9.525v35.729c-2.104,0.451-5.279,0.996-9.523,1.635
			c-4.246,0.637-9.035,0.957-14.371,0.957c-3.531,0-6.762-0.338-9.691-1.014c-2.932-0.676-5.43-1.765-7.496-3.269
			c-2.068-1.503-3.682-3.456-4.846-5.861c-1.166-2.403-1.748-5.371-1.748-8.903c0-3.382,0.656-6.236,1.973-8.566
			c1.314-2.328,3.1-4.227,5.354-5.691c2.254-1.466,4.865-2.518,7.834-3.156c2.967-0.638,6.066-0.959,9.299-0.959
			c1.502,0,3.08,0.096,4.732,0.282c1.652,0.188,3.42,0.507,5.299,0.958v-2.254c0-1.578-0.189-3.08-0.564-4.508
			c-0.377-1.428-1.033-2.687-1.973-3.776c-0.939-1.089-2.18-1.934-3.719-2.536c-1.541-0.601-3.477-0.902-5.805-0.902
			c-3.156,0-6.049,0.227-8.68,0.677c-2.631,0.451-4.771,0.978-6.424,1.578l-1.691-11.046c1.729-0.6,4.246-1.201,7.553-1.803
			C374.924,89.649,378.455,89.349,382.213,89.349z M383.34,140.181c4.209,0,7.4-0.225,9.582-0.676v-15.104
			c-0.752-0.225-1.844-0.45-3.27-0.676c-1.428-0.226-3.006-0.338-4.734-0.338c-1.504,0-3.025,0.112-4.564,0.338
			c-1.541,0.226-2.93,0.639-4.17,1.24s-2.236,1.447-2.986,2.535c-0.752,1.09-1.127,2.463-1.127,4.114
			c0,3.231,1.014,5.467,3.043,6.706C377.143,139.562,379.883,140.181,383.34,140.181z"/>
		<path fill="#87888A" d="M438.006,73.569c0,2.556-0.828,4.584-2.48,6.086c-1.652,1.504-3.605,2.255-5.861,2.255
			c-2.33,0-4.32-0.751-5.973-2.255c-1.654-1.502-2.48-3.53-2.48-6.086c0-2.629,0.826-4.695,2.48-6.199
			c1.652-1.502,3.643-2.254,5.973-2.254c2.256,0,4.209,0.752,5.861,2.254C437.178,68.874,438.006,70.94,438.006,73.569z
			 M436.541,149.762h-13.639V90.813h13.639V149.762z"/>
		<path fill="#87888A" d="M469.086,149.762c-3.773-7.738-7.641-16.625-11.602-26.656c-3.961-10.03-7.562-20.795-10.807-32.292
			h14.545c0.828,3.309,1.791,6.858,2.885,10.652c1.094,3.795,2.262,7.59,3.508,11.383c1.244,3.795,2.527,7.479,3.848,11.046
			c1.32,3.569,2.547,6.782,3.68,9.637c1.131-2.854,2.338-6.067,3.621-9.637c1.281-3.567,2.545-7.251,3.791-11.046
			c1.242-3.793,2.432-7.588,3.564-11.383c1.131-3.794,2.111-7.344,2.943-10.652h14.092c-3.244,11.497-6.848,22.262-10.809,32.292
			c-3.963,10.031-7.828,18.918-11.6,26.656H469.086z"/>
		<path fill="#87888A" d="M508.559,120.569c0-5.184,0.77-9.729,2.311-13.638c1.539-3.906,3.588-7.157,6.143-9.749
			c2.555-2.593,5.484-4.546,8.793-5.861c3.305-1.313,6.686-1.973,10.143-1.973c8.115,0,14.445,2.519,18.992,7.552
			c4.545,5.035,6.818,12.55,6.818,22.542c0,0.752-0.02,1.598-0.057,2.536c-0.037,0.94-0.094,1.786-0.168,2.536h-38.885
			c0.375,4.734,2.045,8.396,5.016,10.989c2.967,2.593,7.27,3.889,12.904,3.889c3.307,0,6.33-0.3,9.074-0.901
			c2.742-0.602,4.902-1.24,6.48-1.916l1.803,11.158c-0.752,0.377-1.785,0.771-3.1,1.184c-1.314,0.413-2.816,0.789-4.508,1.127
			s-3.514,0.619-5.467,0.845c-1.955,0.226-3.945,0.339-5.973,0.339c-5.186,0-9.693-0.771-13.525-2.311
			c-3.832-1.54-6.988-3.682-9.469-6.426c-2.479-2.741-4.322-5.973-5.521-9.692C509.16,129.079,508.559,125.005,508.559,120.569z
			 M548.121,114.483c0-1.877-0.266-3.663-0.789-5.354c-0.527-1.691-1.297-3.156-2.311-4.396c-1.016-1.239-2.254-2.215-3.721-2.93
			c-1.465-0.713-3.211-1.07-5.24-1.07c-2.105,0-3.945,0.394-5.523,1.183s-2.912,1.823-4,3.1c-1.092,1.278-1.936,2.743-2.537,4.396
			c-0.602,1.654-1.014,3.345-1.24,5.072H548.121z"/>
		<path fill="#87888A" d="M294.865,163.092c-6.486-6.321-12.053-12.362-17.432-18.927c2.562-2.857,4.562-6.281,5.979-10.288
			c1.449-4.108,2.176-8.657,2.176-13.653c0-4.994-0.748-9.524-2.236-13.593c-1.49-4.066-3.564-7.552-6.223-10.452
			c-2.66-2.899-5.861-5.135-9.605-6.705c-3.746-1.57-7.836-2.355-12.264-2.355c-4.43,0-8.5,0.785-12.205,2.355
			s-6.906,3.806-9.604,6.705c-2.701,2.9-4.795,6.386-6.283,10.452c-1.492,4.068-2.236,8.599-2.236,13.593
			c0,4.996,0.744,9.545,2.236,13.653c1.488,4.108,3.562,7.612,6.223,10.511c2.656,2.9,5.84,5.156,9.545,6.768
			c3.703,1.61,7.812,2.416,12.324,2.416c4.264,0,8.182-0.729,11.764-2.17c4.365,7.115,9.307,13.965,14.789,20.445
			C287.211,168.608,289.934,166.784,294.865,163.092z M243.961,135.327c-2.697-3.704-4.047-8.739-4.047-15.104
			c0-6.283,1.35-11.256,4.047-14.922c2.699-3.664,6.467-5.498,11.299-5.498s8.598,1.834,11.297,5.498
			c2.697,3.666,4.049,8.639,4.049,14.922c0,6.364-1.352,11.399-4.049,15.104c-2.699,3.705-6.465,5.557-11.297,5.557
			S246.66,139.032,243.961,135.327z"/>
		<path fill="#87888A" d="M345.246,147.958c-2.631,0.677-6.049,1.372-10.258,2.086c-4.211,0.713-8.832,1.07-13.865,1.07
			c-4.732,0-8.697-0.676-11.889-2.029c-3.193-1.352-5.748-3.229-7.664-5.635c-1.916-2.404-3.287-5.278-4.113-8.623
			c-0.828-3.342-1.24-7.006-1.24-10.988V90.813h13.639v30.883c0,6.312,0.918,10.82,2.758,13.525
			c1.842,2.705,5.053,4.059,9.637,4.059c1.652,0,3.4-0.074,5.242-0.227c1.84-0.149,3.213-0.338,4.113-0.562V90.813h13.641V147.958z"
			/>
		<path fill="#004666" d="M153.023,177.033c-2.746-12.608-13.969-22.05-27.402-22.05c-13.432,0-24.654,9.441-27.402,22.049
			c8.332,3.846,17.604,5.993,27.406,5.994C135.422,183.025,144.693,180.878,153.023,177.033z"/>
		<path fill="#004666" d="M191.1,117.542c-0.002-2.6-0.158-5.16-0.451-7.679c-12.834-1.277-25.275,6.479-29.426,19.253
			c-4.146,12.767,1.355,26.35,12.482,32.863C184.51,150.285,191.094,134.718,191.1,117.542z"/>
		<path fill="#004666" d="M147.629,87.257c10.863,7.893,25.486,6.852,35.119-1.73c-2.949-5.246-6.598-10.051-10.828-14.289
			c-9.002-8.986-20.555-15.362-33.502-17.925C133.232,65.126,136.764,79.36,147.629,87.257z"/>
		<path fill="#004666" d="M68.492,85.528c9.635,8.58,24.262,9.619,35.129,1.724c10.865-7.893,14.395-22.125,9.209-33.938
			c-12.955,2.561-24.506,8.932-33.508,17.924C75.09,75.476,71.441,80.281,68.492,85.528z"/>
		<path fill="#004666" d="M90.016,129.11c-4.148-12.771-16.59-20.525-29.426-19.248c-0.295,2.518-0.451,5.08-0.451,7.68
			c0.006,17.176,6.586,32.742,17.395,44.438C88.662,155.466,94.166,141.881,90.016,129.11z"/>
	</g>
</g>
<g id="Dimension_Layer">
</g>
</svg>
