<?xml version="1.0" encoding="utf-8"?>
<!-- Generator: Adobe Illustrator 19.2.1, SVG Export Plug-In . SVG Version: 6.00 Build 0)  -->
<svg version="1.1" id="Capa_1" xmlns="http://www.w3.org/2000/svg" xmlns:xlink="http://www.w3.org/1999/xlink" x="0px" y="0px"
	 viewBox="0 0 512 512" style="enable-background:new 0 0 512 512;" xml:space="preserve">
<style type="text/css">
	.st0{fill:#FFFFFF;}
</style>
<g>
	<g>
		<path class="st0" d="M334.8,116.3c0-1.6-0.8-3.1-2.2-3.9c-1.4-0.8-3.1-0.7-4.5,0.2c-8.5,5.7-23.9,16.7-40.5,31.4l2.8,34.8
			l-16.3-22.1c-15.6,15.4-30.8,33.7-40.9,53.5l2,24.8l-8.1-11c-8.1,21.7-9.4,44.9,1.5,68l-8,14.6l-0.1,0.2h-12.7c-4.5,0-8,3.8-8,8.3
			v11.8h2.1l-19,33.1c-2.1,0-3.7,1.7-3.7,3.9v6.6c0,2.1,1.4,3.5,3.5,3.5h75.9c2.1,0,4-1.5,4-3.5v-6.8c0-2.1-1.8-3.7-3.8-3.7
			l-20.2-33.1h2.8V315c0-4.5-3.4-8.3-7.9-8.3H233v-0.1l5.1-9.5c12.9-1.7,24-6,33.7-12.4l-15.9-5.1l31.5-7.9
			c10.9-11.4,19.3-25.5,25.8-40.8l-19.7-1.2l25.4-13.6C332.1,176.5,334.5,133.7,334.8,116.3z M213.9,333.6l-12.7,24
			c-0.8,1.6-2.4,2.5-4.1,2.5c-0.7,0-1.5-0.2-2.2-0.5c-2.2-1.2-3.1-4-1.9-6.3l12.7-24c1.2-2.2,4-3.1,6.2-1.9
			C214.3,328.6,215.1,331.3,213.9,333.6z M211.4,322.3c-2.6,0-4.8-2.1-4.8-4.7c0-2.6,2.1-4.8,4.8-4.8c2.6,0,4.8,2.1,4.8,4.8
			C216.2,320.1,214.1,322.3,211.4,322.3z"/>
	</g>
</g>
</svg>
