<?xml version="1.0" encoding="utf-8"?>
<!-- Generator: Adobe Illustrator 18.1.1, SVG Export Plug-In . SVG Version: 6.00 Build 0)  -->
<svg version="1.1" id="Capa_1" xmlns="http://www.w3.org/2000/svg" xmlns:xlink="http://www.w3.org/1999/xlink" x="0px" y="0px"
	 viewBox="41.6 164.9 512 512" enable-background="new 41.6 164.9 512 512" xml:space="preserve">
<g>
	<defs>
		<rect id="SVGID_1_" x="92.7" y="216.3" width="409.9" height="410"/>
	</defs>
	<clipPath id="SVGID_2_">
		<use xlink:href="#SVGID_1_"  overflow="visible"/>
	</clipPath>
	<path clip-path="url(#SVGID_2_)" fill="#FFFFFF" d="M196.9,320.6H398v201.1H196.9V320.6z M209.5,509.1h176v-176h-176V509.1z
		 M234.6,446.3v25.1h12.6V484H222v-50.3h37.7v12.6H234.6z M297.4,471.4h25.1V484h-25.1V471.4z M259.7,471.4h25.1V484h-25.1V471.4z
		 M372.9,433.7V484h-37.7v-12.6h25.1v-25.1h-12.6v-12.6H372.9z M310,433.7h25.1v12.6H310V433.7z M272.3,433.7h25.1v12.6h-25.1V433.7
		z M234.6,370.9V396h12.6v12.6H222v-50.3h37.7v12.6H234.6z M297.4,396h25.1v12.6h-25.1V396z M259.7,396h25.1v12.6h-25.1V396z
		 M372.9,358.3v50.3h-37.7V396h25.1v-25.1h-12.6v-12.6H372.9z M310,358.3h25.1v12.6H310V358.3z M272.3,358.3h25.1v12.6h-25.1V358.3z
		"/>
</g>
</svg>
