<?xml version="1.0" encoding="utf-8"?>
<!-- Generator: Adobe Illustrator 18.1.0, SVG Export Plug-In . SVG Version: 6.00 Build 0)  -->
<!DOCTYPE svg PUBLIC "-//W3C//DTD SVG 1.1//EN" "http://www.w3.org/Graphics/SVG/1.1/DTD/svg11.dtd">
<svg version="1.1" id="Layer_1" xmlns="http://www.w3.org/2000/svg" xmlns:xlink="http://www.w3.org/1999/xlink" x="0px" y="0px"
	 width="512px" height="512px" viewBox="-136 164 512 512" enable-background="new -136 164 512 512" xml:space="preserve">
<path d="M259.8,325.8v44h60.8v100.5h-60.8v44h104.8V325.8H259.8z M125.6,470.2H-80.6V369.8h206.2v-44h-250.1v188.4h250.1V470.2z
	 M220.5,566.7c-0.8-1.1-1.3-2.2-1.8-3.8V282.2l-0.1-1.9c0.4-2.4,1.1-4.5,2.4-6.2c3.6-5,10.7-6.1,16-6.1h9.9v-32.7H237
	c-12.7,0-37.2,4-44.8,12c-7.6-8.5-32.4-12.8-45.5-12.8h-9.9v32.7h9.9c5.3,0,12.3,1,16,6.1c0.8,1.1,1.4,2.3,1.8,3.8v281.3
	c0,0.2,0,4.7-2.6,8.2c-3.7,5-10.7,6.1-16,6.1H136v32.6h9.9c13,0,37.7-4.2,45.3-12.5c7.6,8.4,32.3,12.5,45.3,12.5h9.9v-32.6h-9.9
	C231.2,572.8,224.1,571.7,220.5,566.7z M125.6,442.8h-180v-46h180V442.8z"/>
</svg>
