<?xml version="1.0" encoding="utf-8"?>
<!-- Generator: Adobe Illustrator 18.1.1, SVG Export Plug-In . SVG Version: 6.00 Build 0)  -->
<svg version="1.1" id="Capa_1" xmlns="http://www.w3.org/2000/svg" xmlns:xlink="http://www.w3.org/1999/xlink" x="0px" y="0px"
	 viewBox="-435.1 1.1 512 512" enable-background="new -435.1 1.1 512 512" xml:space="preserve">
<g>
	<path fill="#FFFFFF" d="M-252.9,331.1c0,0.5,0,0.8,0,1.1c0,0.1,0,0.3,0,0.4c0.3,8,6.9,14.4,14.9,14.4h132.9v-14.6
		c0-2.9,2.4-5.3,5.3-5.3c2.9,0,5.3,2.4,5.3,5.3v19.9c0,2.9-2.4,5.3-5.3,5.3h-139c-0.3,0-0.5,0-0.8-0.1c-13.3-0.8-24-11.9-24-25.5
		c0-0.3,0-0.6,0-0.9c-0.2-15.7,0-135.4,0-148.4c0-0.2-0.1-0.4-0.1-0.6c0-14.1,11.5-25.6,25.6-25.6h0v123.1c0,1.4,0.5,2.7,1.2,3.4
		c0.8,0.7,1.7,0.5,2.4-0.3l18.6-22l17.6,21.9c0.4,0.5,0.9,0.8,1.4,0.8c0.3,0,0.7-0.1,1-0.4c0.8-0.6,1.3-2,1.3-3.4V156.6h93.4h1.3
		c2.9,0,5.3,2.4,5.3,5.3v149.7c0,2.9-2.4,5.3-5.3,5.3c0,0-0.1,0-0.1,0c-0.4,0.1-0.8,0.2-1.2,0.2H-238
		C-246,317-252.5,323.2-252.9,331.1z"/>
</g>
</svg>
