<?xml version="1.0" encoding="utf-8"?>
<!-- Generator: Adobe Illustrator 18.1.1, SVG Export Plug-In . SVG Version: 6.00 Build 0)  -->
<svg version="1.1" id="Capa_1" xmlns="http://www.w3.org/2000/svg" xmlns:xlink="http://www.w3.org/1999/xlink" x="0px" y="0px"
	 viewBox="0 0 512 512" enable-background="new 0 0 512 512" xml:space="preserve">
<g>
	<g>
		<path fill="#FFFFFF" d="M251.2,283.9h-9.5c-4.9,0-9-4-9-8.9c0-1.8,0.7-3.6,2-4.9c5.5-5.4,10.2-12.6,13.6-20.4
			c0.7,0.5,1.4,0.9,2.3,0.9c5.3,0,11.7-11.8,11.7-19.9c0-8.1-0.7-14.6-6.1-14.6c-0.6,0-1.3,0.1-2,0.3c-0.4-21.9-5.9-49.1-39.3-49.1
			c-34.8,0-38.9,27.2-39.3,49c-0.5-0.1-1-0.2-1.4-0.2c-5.4,0-6.1,6.5-6.1,14.6c0,8.1,6.3,19.9,11.6,19.9c0.7,0,1.3-0.2,1.9-0.5
			c3.4,7.7,8,14.8,13.4,20.1c1.3,1.3,2,3,2,4.9c0,4.9-4,9-9,9h-9.5c-20.4,0-36.9,16.5-36.9,36.9v10.2c0,6.4,5.2,11.7,11.7,11.7
			h123.2c6.4,0,11.6-5.2,11.6-11.7v-10.2C288.1,300.5,271.6,283.9,251.2,283.9z"/>
		<path fill="#FFFFFF" d="M361.7,182.7H258.4c3,6.6,5.1,14.7,6,24.8c2.2,1.4,3.9,3.6,5.2,6.2h92.1c4.8,0,8.6-3.9,8.6-8.6v-13.7
			C370.3,186.6,366.5,182.7,361.7,182.7z"/>
		<path fill="#FFFFFF" d="M361.7,239.1h-90c-2.4,9.2-8.4,18.9-16.8,21.4c-0.2,0.5-0.5,0.8-0.8,1.3v8.2h107.5c4.8,0,8.6-3.9,8.6-8.6
			v-13.7C370.3,243,366.5,239.1,361.7,239.1z"/>
		<path fill="#FFFFFF" d="M361.7,295.5h-70.2c4.6,7.3,7.4,16,7.4,25.3v5.7h62.9c4.8,0,8.6-3.9,8.6-8.6v-13.7
			C370.3,299.4,366.5,295.5,361.7,295.5z"/>
	</g>
</g>
</svg>
