<?xml version="1.0" encoding="utf-8"?>
<!-- Generator: Adobe Illustrator 18.1.1, SVG Export Plug-In . SVG Version: 6.00 Build 0)  -->
<svg version="1.1" id="Capa_1" xmlns="http://www.w3.org/2000/svg" xmlns:xlink="http://www.w3.org/1999/xlink" x="0px" y="0px"
	 viewBox="0 0 512 512" enable-background="new 0 0 512 512" xml:space="preserve">
<g>
	<path fill="#FFFFFF" d="M309.9,314.9c3.7,1.3,6.5,5.8,9.8,10.5h101.5v-18H292.9C300.2,310.9,306.4,313.6,309.9,314.9z"/>
	<path fill="#FFFFFF" d="M252.3,258.6c-0.3,0.4-0.6,0.8-0.9,1.2c-1.2,1.9-2.5,3.8-4.2,4.2c-0.9,0.2-1.8,0.2-2.4,0.3
		c-0.4,1.6-1.3,5.2-2.1,7.4c-0.6,1.5-1,2.7-1.4,3.7h179.9v-18H252.8C252.6,257.9,252.4,258.3,252.3,258.6z"/>
	<path fill="#FFFFFF" d="M254.8,207.5c2.1,6.6,1.5,10.7,1.2,12.6c-0.3,2.1-0.6,3.8-0.8,5.4h166v-18H254.8z"/>
</g>
<path fill="#FFFFFF" d="M290.7,357.4h16.3c0.4,0,0.8-0.2,1.1-0.6c0.5-0.6,1.6-2.1-3.7-21.8c-1.7-7-11.8-15.6-17.4-17.7
	c-6.1-2.3-19.3-8.3-33.5-15.4c-12.9-6.4-21.6-14.9-25.2-18.6c-0.7-0.7-1.2-1.2-1.6-1.5c-1.1-0.9-1.6-2.6-1.7-3.9
	c0-0.9,0.1-1.3,0.3-1.4c1.4-1.4,2.1-3.1,4.1-8.7c0.9-2.5,2-6.7,2.4-8.5c0.7-0.1,1.8-0.1,2.8-0.4c1.9-0.5,3.4-2.7,4.8-4.9
	c0.4-0.5,0.6-1,1-1.4c1.8-2.6,3.4-15.9,3.6-19.9c0.1-3.9-2.1-6.5-3.1-7.5c0.3-1.5,1.1-5.9,2.7-16.7c0.6-3.7,2.2-14.9-12.6-35.6
	c-3.5-4.9-10.2-6.8-16.7-8.7c-2.3-0.6-4.6-1.4-6.7-2.1c-2.6-0.9-5.7-1.4-9.4-1.4c-5.9,0-12.2,1.2-16.4,2l-1.3,0.2
	c-5.8,1.1-12.1,7.1-13.7,8.7c-0.6,0.1-2,0.1-3.9,0.5c-2.6,0.5-6.8,7.7-8.2,11.4c-1.9,4.9-3.6,19.1-2.7,27.6c0.4,3.4,1.1,8.6,2.8,15
	c-2.6,1.6-2.6,5-2.5,7.2c0,0.3,0,0.6,0,0.9c0,2.3,0.9,12.1,3.6,18c2.6,5.6,7.6,8.4,8.3,8.7c0.1,0.1,0.9,0.8,1.1,2.9
	c0.3,2.6,2.1,6.6,3.6,9.8c0.3,0.6,0.6,1.3,0.8,1.8c0.3,0.6,0.6,1.3,1,1.9c0.6,1,1.4,2.4,1.1,3c-0.5,0.8-1.7,0.9-3,1.1
	c-0.4,0.1-0.6,0.1-0.9,0.1c-2.2,0.4-3.3,3.3-3.5,3.9c-1.4,2.6-5.1,9.4-7.4,11.2c-2.6,2.1-9.7,5.5-18.2,8.7
	c-5.7,2.2-17.4,7.9-25.2,11.7c-2.9,1.4-5.1,2.5-6.4,3.1c-5.4,2.6-11.2,9.7-12.8,14.3c-6.6,19.9-5.5,21.5-5,22.2
	c0.3,0.4,0.7,0.6,1.1,0.6c0.3,0,189.4,0.1,189.6,0L290.7,357.4z"/>
</svg>
