<?xml version="1.0" encoding="utf-8"?>
<!-- Generator: Adobe Illustrator 18.1.1, SVG Export Plug-In . SVG Version: 6.00 Build 0)  -->
<svg version="1.1" id="Capa_1" xmlns="http://www.w3.org/2000/svg" xmlns:xlink="http://www.w3.org/1999/xlink" x="0px" y="0px"
	 viewBox="0 0 512 512" enable-background="new 0 0 512 512" xml:space="preserve">
<g>
	<path fill="#FFFFFF" d="M368.7,220.1h-61.3v-49.7c0-12.9-10.6-23.5-23.5-23.5H141c-12.9,0-23.5,10.6-23.5,23.5v86
		c0,12.9,10.6,23.5,23.5,23.5h13.9l17.5,23.5c1,1.6,3,2.4,5,2.4s3.6-1,5-2.4l17.5-23.5h2.6v49.7c0,12.9,10.6,23.5,23.5,23.5h84
		l17.5,23.5c1,1.6,3,2.4,5,2.4s3.6-1,5-2.4l17.5-23.5h13.9c12.9,0,23.5-10.6,23.5-23.5v-86C392.5,230.7,381.9,220.1,368.7,220.1z
		 M196.6,267.8c-2,0-3.6,1-5,2.4l-14.5,19.1l-14.6-19.2c-1-1.6-3-2.4-5-2.4h-17.2c-6.3,0-11.2-5-11.2-11.2v-86
		c0-6.3,5-11.2,11.2-11.2h143c6.3,0,11.2,5,11.2,11.2v55.9v30.1c0,6.3-5,11.2-11.2,11.2h-74.9L196.6,267.8L196.6,267.8z
		 M380.2,329.7c0,6.3-5,11.2-11.2,11.2h-17.2c-2,0-3.6,1-5,2.4l-14.6,19.2l-14.6-19.2c-1-1.6-3-2.4-5-2.4h-86.7
		c-6.3,0-11.2-5-11.2-11.2V280H284c4.6,0,9-1.4,12.6-3.6h46.3c3.4,0,6-2.6,6-6s-2.6-6-6-6h-36.4c1-2.4,1.4-5,1.4-8v-23.8h61.3
		c6.3,0,11.2,5,11.2,11.2L380.2,329.7L380.2,329.7z M348.5,304.5c0,3.4-2.6,6-6,6h-90c-3.4,0-6-2.6-6-6s2.6-6,6-6h90
		C345.8,298.5,348.5,301.2,348.5,304.5z M256.8,237.3h-89.7c-3.4,0-6-2.6-6-6s2.6-6,6-6h89.7c3.4,0,6,2.6,6,6
		C263.1,234.7,260.2,237.3,256.8,237.3z M161.2,196.9c0-3.4,2.6-6,6-6h53.9c3.4,0,6,2.6,6,6s-2.6,6-6,6h-53.9
		C163.8,202.9,161.2,200.3,161.2,196.9z"/>
</g>
</svg>
