<?xml version="1.0" encoding="utf-8"?>
<!-- Generator: Adobe Illustrator 18.1.1, SVG Export Plug-In . SVG Version: 6.00 Build 0)  -->
<svg version="1.1" id="Capa_1" xmlns="http://www.w3.org/2000/svg" xmlns:xlink="http://www.w3.org/1999/xlink" x="0px" y="0px"
	 viewBox="0 0 512 512" enable-background="new 0 0 512 512" xml:space="preserve">
<g>
	<g>
		<path fill="#FFFFFF" d="M201.9,254.6l0.9-0.9l0.9,0.9c8,7.5,16.8,11.6,24.8,11.6c8.4,0,17.2-3.7,25.2-10.6l0.6-0.6l1.8,0.9
			c1.5,1.4,4.2,3.3,5.4,3.9l1.7,0.8l-0.2,0.2l0.6,0.4c1.5,0.9,3.2,1.8,5,2.7c1.9,0.8,3.4,1.4,5.2,2c0.4,0.1,8.3,2.7,17.3,6.9
			l1.7,0.5c8.6,3.3,12.2,7.9,12.3,8c13.4,19.8,15.6,63,15.8,67.9c-0.1,6.7-2,8.5-2.5,8.8c-29.9,13.4-75.1,16.9-83.9,17.4h-0.2
			l-0.3-0.1c-0.3-0.1-0.6-0.1-0.9-0.1l0,0h-0.3c-2.4,0.1-4.4,0.2-6.2,0.2h-1.4c-5.5-0.4-54.2-3.5-85.4-17.4
			c-0.6-0.3-2.5-2.4-2.6-8.6c0-0.4,1.6-47.2,15.7-68c0.7-0.9,4.5-5.3,12.1-8.2c6.7-2.1,23.3-7.5,32.3-14.1c0.4-0.2,0.8-0.6,1.1-1
			C198.9,257.5,200.3,256,201.9,254.6z M295.1,266.2l-1.2-0.4c-2-0.9-4.2-1.9-6.4-2.8c3.1-1.4,5.7-2.9,7.5-4.2
			c0.3-0.1,0.6-0.5,0.9-0.8c0.7-0.7,1.6-1.7,2.7-2.7l0.6-0.5l0.6,0.6c6,5.6,12.5,8.7,18.5,8.7c6.3,0,12.8-2.7,18.8-7.9l0.4-0.4
			l1.2,0.6c1.1,1,3.1,2.4,4,2.9l1,0.5l-0.1,0.1l0.6,0.4c1.1,0.6,2.4,1.3,3.7,2c1.4,0.6,2.6,1.1,3.9,1.5c0.2,0.1,6.1,1.9,12.9,5.1
			l1.2,0.4c6.2,2.4,8.8,5.6,9.1,5.9c10,14.8,11.6,46.7,11.7,50.3c-0.1,5-1.4,6.2-1.8,6.5c-18.7,8.4-45.7,11.6-56.9,12.6
			c-1-14.7-4.7-49.3-16.7-67.3l-0.5-0.6C308.2,273.6,302.9,269.2,295.1,266.2z M288,212.8l0.2-0.3c0.9-0.7,1.4-1.8,1.2-2.9
			c-2.2-13.5-0.8-19.2-0.3-20.6c3.9-12.1,16.3-17.7,18.7-18.7c0.5-0.2,1.4-0.5,2.4-0.6l0.3-0.1l1.9-0.1v0.1l0.6-0.1
			c0.4,0,0.9-0.1,1.1-0.1l0.6-0.1c0.4,0,5.2,0.6,12.3,2.8l5,1.7c9,2.7,13.2,7.7,14,8.7c7.3,8.3,5.3,20.7,3.5,27.4
			c-0.2,0.9-0.1,1.7,0.4,2.4l0.4,0.5c0.5,0.7,1,3.4-0.6,9.3c-0.3,1.8-0.9,3.2-1.9,4.2c-0.4,0.4-0.6,0.9-0.7,1.5
			c-2.4,14.4-15.4,30.5-28.9,30.5c-11.6,0-24.7-14.8-27.1-30.5c-0.1-0.6-0.4-1.1-0.8-1.6c-0.9-1-1.6-2.4-1.9-4.7
			C287.3,217.4,287.2,214.1,288,212.8z M187.7,197.2l0.3-0.4c1.2-0.9,1.8-2.2,1.6-3.7c-3-18.3-1.1-25.9-0.4-27.9
			c5.3-16.3,22-23.9,25.3-25.2c0.7-0.3,1.9-0.6,3.3-0.9l0.4-0.1l2.7-0.1v0.1l0.6-0.1c0.6-0.1,1.1-0.1,1.7-0.3l0.6-0.1
			c0.5,0,7,0.8,16.7,3.8l6.7,2.3c12.2,3.6,17.9,10.4,19,11.7c9.8,11.1,7.2,27.9,4.7,37c-0.3,1-0.1,2.2,0.5,3l0.6,0.7
			c0.9,1.2,1.2,5.2-0.8,12.6c-0.4,2.4-1.3,4.4-2.7,5.7c-0.5,0.5-0.8,1.2-0.9,1.9c-3.3,19.5-20.7,41.3-39.1,41.3
			c-15.7,0-33.5-20-36.6-41.2c-0.1-0.8-0.4-1.4-1-2c-1.4-1.4-2.2-3.4-2.7-6.3C186.6,203.6,186.5,199.1,187.7,197.2z"/>
	</g>
</g>
</svg>
