<?xml version="1.0" encoding="utf-8"?>
<!-- Generator: Adobe Illustrator 16.0.0, SVG Export Plug-In . SVG Version: 6.00 Build 0)  -->
<!DOCTYPE svg PUBLIC "-//W3C//DTD SVG 1.1//EN" "http://www.w3.org/Graphics/SVG/1.1/DTD/svg11.dtd">
<svg version="1.1" id="Laag_1" xmlns="http://www.w3.org/2000/svg" xmlns:xlink="http://www.w3.org/1999/xlink" x="0px" y="0px"
	 width="500px" height="50px" viewBox="0 0 500 50" enable-background="new 0 0 500 50" xml:space="preserve">
<g>
	<g>
		<path d="M115.46,36.064h20.938v-21.15H115.46V36.064z M116.418,15.886h19.083v19.021l-19.083-0.001V15.886z M318.451,23.75h15.05
			v-0.556h-15.05V23.75z M130.985,21.207l-7,7.982l-2.777-2.777l-0.76,0.76l3.584,3.584l0.76-0.76l-0.048-0.048l7-7.981
			L130.985,21.207z M67.645,36.084h14.041l0.014,0.024l0.024-0.024h0.038v-0.038l3.327-3.346l0.101,0.001V14.902H67.645V36.084z
			 M81.762,34.595v-1.938l1.901,0.025L81.762,34.595z M84.023,16.022V31.91l-3.036,0.02l0.008,3.036l-12.184-0.001l0-18.943H84.023z
			 M330.473,15.997V14.95h-1.002v1.047h-2.998V14.95h-1.002v1.047h-2.998V14.95h-1.002v1.047h-4.011v20.067h16.938V15.997H330.473z
			 M333.502,34.906l-15.083-0.001l-0.001-17.937h3.053v1.378c-0.391,0.199-0.665,0.593-0.665,1.061c0,0.663,0.538,1.2,1.201,1.2
			s1.2-0.537,1.2-1.2c0-0.498-0.303-0.925-0.734-1.107v-1.332h2.998v1.366c-0.4,0.195-0.683,0.597-0.683,1.073
			c0,0.663,0.537,1.2,1.2,1.2s1.201-0.537,1.201-1.2c0-0.49-0.296-0.909-0.717-1.095v-1.343h2.998v1.374
			c-0.394,0.198-0.67,0.595-0.67,1.064c0,0.663,0.537,1.2,1.2,1.2s1.201-0.537,1.201-1.2c0-0.496-0.301-0.92-0.729-1.104v-1.334
			h3.029V34.906z M26.437,16.475c-6.67,0-12.078,3.56-12.078,7.953c0,3.759,3.96,6.905,9.283,7.736
			c-0.434,1.406-1.156,3.063-2.291,3.892c2.185,0.004,4.34-1.958,5.817-3.69c6.329-0.25,11.346-3.707,11.346-7.938
			C38.514,20.035,33.106,16.475,26.437,16.475z M26.55,31.688c-0.938,1.385-1.571,1.947-3.302,3.256
			c0.656-0.92,0.955-2.067,1.347-3.34c-4.817-0.752-9.089-3.6-9.089-7.002c0-3.975,4.894-7.198,10.932-7.198
			c6.037,0,10.931,3.223,10.931,7.198C37.368,28.431,32.278,31.462,26.55,31.688z M181.329,15.094h-0.771v0.043h-4.285v-0.043h-0.77
			v0.043h-4.189v-0.043h-0.77v0.043h-4.984v20.704h4.984v0.054h0.77v-0.054h4.189v0.054h0.77v-0.054h4.285v0.054h0.771v-0.054h5.031
			V15.137h-5.031V15.094z M170.544,35.103h-4.197V30.79h4.197V35.103z M170.544,30.021h-4.197v-4.189h4.197V30.021z M170.544,25.061
			h-4.197v-4.092h4.197V25.061z M170.544,20.197h-4.197v-4.321h4.197V20.197z M175.503,35.104h-4.189V30.79h4.189V35.104z
			 M175.503,30.021h-4.189v-4.189h4.189V30.021z M175.503,25.061h-4.189v-4.092h4.189V25.061z M175.503,20.197h-4.189v-4.321h4.189
			V20.197z M180.558,35.104h-4.285V30.79h4.285V35.104z M180.558,30.021h-4.285v-4.189h4.285V30.021z M180.558,25.061h-4.285v-4.092
			h4.285V25.061z M180.558,20.197h-4.285v-4.321h4.285V20.197z M185.573,35.104h-4.244V30.79h4.244V35.104z M185.573,30.021h-4.244
			v-4.189h4.244V30.021z M185.573,25.061h-4.244v-4.092h4.244V25.061z M185.573,15.876v4.321h-4.244v-4.321H185.573z M274.686,20.09
			h1.529v-1.391h-1.529V20.09z M274.686,31.492h1.529v-9.861h-1.529V31.492z M236.142,25.01l-8.615-9.684l0.008-0.009l-0.554-0.623
			l-0.008,0.009l-0.008-0.009l-0.555,0.623l0.008,0.009l-8.615,9.683l0.104,0.117h-0.122v11.177h0.799V25.377l8.387-9.428
			l8.377,9.416v10.938h0.798V25.127h-0.11L236.142,25.01z M318.451,32.666h15.05v-0.555h-15.05V32.666z M318.451,29.666h15.05
			v-0.555h-15.05V29.666z M275.318,13.579c-6.209,0-11.242,5.033-11.242,11.242s5.033,11.242,11.242,11.242
			s11.242-5.033,11.242-11.242S281.527,13.579,275.318,13.579z M275.318,34.864c-5.546,0-10.042-4.496-10.042-10.043
			c0-5.546,4.496-10.042,10.042-10.042c5.547,0,10.042,4.496,10.042,10.042C285.36,30.368,280.865,34.864,275.318,34.864z
			 M318.451,26.749h15.05v-0.555h-15.05V26.749z"/>
	</g>
</g>
<g>
	<path d="M385,18.622c0-2.079-1.545-3.622-3.624-3.622h-13.752c-2.079,0-3.624,1.543-3.624,3.622v13.756
		c0,2.078,1.545,3.622,3.624,3.622h13.752c2.079,0,3.624-1.544,3.624-3.622V18.622z M384,32.418c0,1.426-1.156,2.582-2.582,2.582
		h-13.836c-1.426,0-2.582-1.156-2.582-2.582V18.582c0-1.426,1.156-2.582,2.582-2.582h13.836c1.426,0,2.582,1.156,2.582,2.582V32.418
		z"/>
	<path d="M376.343,30.718c-0.453,0.445-1.044,0.668-1.773,0.668c-0.351,0-0.678-0.054-0.981-0.162
		c-0.306-0.107-0.57-0.264-0.801-0.465c-0.229-0.204-0.411-0.453-0.547-0.75c-0.135-0.298-0.203-0.635-0.203-1.014
		c0-0.527,0.112-0.965,0.335-1.316c0.223-0.351,0.503-0.661,0.841-0.932l0.566-0.507c0.203-0.189,0.402-0.381,0.599-0.578
		c0.194-0.196,0.372-0.415,0.526-0.658c0.156-0.242,0.076-0.517,0.164-0.82C375.156,23.88,375,23.54,375,23.162V22h-1v0.878
		c0,0.365-0.036,0.674-0.09,0.932c-0.054,0.256-0.146,0.49-0.269,0.699c-0.121,0.21-0.282,0.409-0.478,0.598
		c-0.195,0.19-0.437,0.397-0.721,0.628c-0.257,0.216-0.499,0.429-0.729,0.637c-0.23,0.211-0.431,0.443-0.599,0.7
		c-0.169,0.257-0.302,0.547-0.396,0.871c-0.095,0.324-0.142,0.702-0.142,1.135c0,0.566,0.105,1.073,0.314,1.519
		c0.21,0.445,0.489,0.82,0.839,1.124c0.352,0.304,0.768,0.534,1.247,0.689c0.48,0.155,0.989,0.233,1.53,0.233
		c1.053,0,1.94-0.302,2.663-0.901c0.723-0.603,1.185-1.43,1.388-2.481l-1.378-0.243C377.074,29.704,376.795,30.271,376.343,30.718z"
		/>
	<path d="M374.55,20.123c0.324,0,0.588-0.111,0.789-0.335c0.203-0.221,0.304-0.476,0.304-0.76c0-0.283-0.101-0.536-0.304-0.76
		c-0.201-0.221-0.465-0.333-0.789-0.333c-0.325,0-0.588,0.112-0.79,0.333c-0.203,0.224-0.304,0.477-0.304,0.76
		c0,0.284,0.101,0.539,0.304,0.76C373.962,20.012,374.225,20.123,374.55,20.123z"/>
</g>
</svg>
