<?xml version="1.0" encoding="utf-8"?>
<!-- Generator: Adobe Illustrator 19.2.1, SVG Export Plug-In . SVG Version: 6.00 Build 0)  -->
<svg version="1.1" id="Capa_1" xmlns="http://www.w3.org/2000/svg" xmlns:xlink="http://www.w3.org/1999/xlink" x="0px" y="0px"
	 viewBox="0 0 512 512" style="enable-background:new 0 0 512 512;" xml:space="preserve">
<style type="text/css">
	.st0{fill:#FFFFFF;}
</style>
<g>
	<path class="st0" d="M218.2,280.7v15.4c0,1,0.8,1.9,1.9,1.9h72.6c1,0,1.8-0.8,1.8-1.9v-15.4c0-5.2,4.3-9.5,9.5-9.5h58.1L324,160.6
		H188.8l-38.2,110.6h58.1C214,271.3,218.2,275.5,218.2,280.7L218.2,280.7z M203,179.7h106.8v22.9h-7.6v-15.3h-91.6v15.3H203V179.7z
		 M191.5,210.2h129.7v22.9h-7.6v-15.3H199.2v15.3h-7.6V210.2z M187.7,263.6h-7.6v-22.9h152.6v22.9h-7.6v-15.3H187.7V263.6z
		 M187.7,263.6"/>
	<path class="st0" d="M302.2,280.7v15.4c0,5.2-4.2,9.5-9.5,9.5h-72.6c-5.2,0-9.5-4.2-9.5-9.5v-15.4c0-1-0.8-1.8-1.9-1.8h-59.2v58.7
		c0,7.6,6.2,13.8,13.8,13.8h186c7.6,0,13.8-6.2,13.8-13.8v-58.7H304C303,278.9,302.2,279.7,302.2,280.7L302.2,280.7z M302.2,280.7"
		/>
</g>
</svg>
