<?xml version="1.0" encoding="utf-8"?>
<!-- Generator: Adobe Illustrator 18.1.1, SVG Export Plug-In . SVG Version: 6.00 Build 0)  -->
<svg version="1.1" id="Capa_1" xmlns="http://www.w3.org/2000/svg" xmlns:xlink="http://www.w3.org/1999/xlink" x="0px" y="0px"
	 viewBox="0 0 512 512" enable-background="new 0 0 512 512" xml:space="preserve">
<g>
	<g>
		<path fill="#FFFFFF" d="M121.7,155.5h27.8l39.6,143.1c1.1,4.2,5,7.1,9.4,7.1h121.6c3.9,0,7.3-2.3,8.9-5.8l44.3-101.8
			c1.3-3.1,1-6.5-0.8-9.2c-1.8-2.7-4.8-4.4-8.1-4.4H229.9c-5.3,0-9.7,4.4-9.7,9.7s4.4,9.7,9.7,9.7h119.5l-35.9,82.4H205.7
			l-39.6-143.1c-1.1-4.2-5-7.1-9.4-7.1h-35.1c-5.3,0-9.7,4.4-9.7,9.7C112,151.1,116.4,155.5,121.7,155.5z"/>
		<path fill="#FFFFFF" d="M189.2,373.9c12.1,0,22-9.9,22-22s-9.9-22-22-22c-12.1,0-22,9.9-22,22S177.1,373.9,189.2,373.9z"/>
		<path fill="#FFFFFF" d="M326.5,373.9c0.5,0,1.1,0,1.6,0c5.8-0.5,11.1-3.1,15-7.6c3.9-4.4,5.7-10,5.3-16
			c-0.8-12-11.3-21.2-23.4-20.4s-21.2,11.5-20.4,23.4C305.5,364.8,315.1,373.9,326.5,373.9z"/>
	</g>
</g>
</svg>
