<?xml version="1.0" encoding="utf-8"?>
<!-- Generator: Adobe Illustrator 18.1.1, SVG Export Plug-In . SVG Version: 6.00 Build 0)  -->
<svg version="1.1" id="Capa_1" xmlns="http://www.w3.org/2000/svg" xmlns:xlink="http://www.w3.org/1999/xlink" x="0px" y="0px"
	 viewBox="0 0 512 512" enable-background="new 0 0 512 512" xml:space="preserve">
<g>
	<path fill="#FFFFFF" d="M377.8,214.6l-93.2-18l-7.6-45.8c-0.8-4.6-5.1-7.7-9.8-7l-134.7,22.5c-4.6,0.8-7.7,5.1-7,9.8L148,310.7
		c0.8,4.6,5.1,7.7,9.8,7l54.1-9l-4,20.7c-0.9,4.6,2.1,9,6.7,9.9l134.1,25.9c4.6,0.9,9-2.1,9.9-6.7l25.9-134.1
		C385.4,219.9,382.4,215.5,377.8,214.6z M168.3,280.9c-3.5,0.6-6.7-1-7.1-3.5l-12.3-74.1c-0.4-2.5,2.1-5.1,5.6-5.7l102.3-17.1
		c3.5-0.6,6.7,1,7.1,3.5l1.5,8.7l-21.6-4.2c-4.6-0.9-9,2.1-9.9,6.7l-14.9,77.1L168.3,280.9z M276.2,258.2c0.4,2.5-2.1,5.1-5.6,5.7
		l-32.4,5.4L246,229c0.5-2.5,3.7-4,7.2-3.4l18.1,3.5L276.2,258.2z M360.6,251.2l-14.3,73.7c-0.5,2.5-3.7,4-7.2,3.4l-101.9-19.7
		c-2.3-0.5-4.2-1.7-5-3.3l60.3-10c4.6-0.8,7.7-5.1,7-9.8l-8.7-52.5l64.4,12.5C358.6,246.1,361,248.7,360.6,251.2z"/>
</g>
</svg>
