<?xml version="1.0" encoding="utf-8"?>
<!-- Generator: Adobe Illustrator 18.1.1, SVG Export Plug-In . SVG Version: 6.00 Build 0)  -->
<svg version="1.1" id="Capa_1" xmlns="http://www.w3.org/2000/svg" xmlns:xlink="http://www.w3.org/1999/xlink" x="0px" y="0px"
	 viewBox="41.6 164.9 512 512" enable-background="new 41.6 164.9 512 512" xml:space="preserve">
<g>
	<g>
		<path fill="#FFFFFF" d="M204.7,473.7c14.7,41.3,91.1,36.2,91.1,36.2s76.4,5.1,91.1-36.2c-21-11.3-54.3-18.7-91.1-18.7
			C259,455,225.7,462.4,204.7,473.7L204.7,473.7z M204.7,473.7"/>
		<path fill="#FFFFFF" d="M386.8,370c-16.6-1.7-43.7-2.8-65.1-21.7c-21.4-18.9-25.9-15.5-25.9-15.5s-4.5-3.4-26,15.5
			c-21.4,18.9-48.5,20-65.2,21.7c-16.6,1.7-15.5,8.5-19.7,27.4c-4.2,18.9-18.4,24-13.8,28.5c3.2,3.1,17.7,15.1,26.3,22.1
			c22.1-13.3,57.6-22.2,98.4-22.2c40.8,0,76.3,8.9,98.4,22.2c8.6-7,23.1-19,26.2-22.1c4.5-4.5-9.7-9.6-13.9-28.5
			C402.4,378.5,403.5,371.7,386.8,370L386.8,370z M316.5,415.4l-20.7-15l-20.7,15.1l7.9-24.6l-20.7-15.3h25.6l7.9-24.3l7.9,24.3
			h25.6l-20.7,15.3L316.5,415.4z M316.5,415.4"/>
	</g>
	<path fill="#FFFFFF" d="M387.7,453.3c-20.9-11.5-54.7-19.2-91.9-19.2c-37.3,0-71,7.6-91.9,19.2v12c22.2-11.3,54.9-18.7,91.9-18.7
		c37,0,69.7,7.3,91.9,18.7V453.3z M387.7,453.3"/>
</g>
</svg>
