<?xml version="1.0" encoding="utf-8"?>
<!-- Generator: Adobe Illustrator 18.1.1, SVG Export Plug-In . SVG Version: 6.00 Build 0)  -->
<svg version="1.1" id="Capa_1" xmlns="http://www.w3.org/2000/svg" xmlns:xlink="http://www.w3.org/1999/xlink" x="0px" y="0px"
	 viewBox="0 0 512 512" enable-background="new 0 0 512 512" xml:space="preserve">
<g>
	<g>
		<path fill="#FFFFFF" d="M318.4,154.7c-3.8,0-6.6-0.7-8.2-2.2c-1.6-1.5-2.4-3.9-2.4-7.4v-11.2v-11.2c0-3.6,0.8-6.1,2.4-7.5
			c1.6-1.4,4.3-2.1,8.2-2.1c4.1,0,6.9,0.7,8.5,2.1c1.6,1.4,2.4,3.9,2.4,7.5v11.2v11.2c0,3.4-0.8,5.9-2.4,7.4
			C325.2,153.9,322.4,154.7,318.4,154.7z M193.6,154.7c-3.8,0-6.6-0.7-8.2-2.2c-1.6-1.5-2.4-3.9-2.4-7.4v-11.2v-11.2
			c0-3.6,0.8-6.1,2.4-7.5c1.6-1.4,4.3-2.1,8.2-2.1c4.1,0,6.9,0.7,8.5,2.1c1.6,1.4,2.4,3.9,2.4,7.5v11.2v11.2c0,3.4-0.8,5.9-2.4,7.4
			C200.5,153.9,197.7,154.7,193.6,154.7z M368.2,133.9c1.3,0,2.4,0.4,3.4,1.3c1,0.9,1.4,1.9,1.4,3.2v47.3c0,1.3-0.5,2.3-1.4,3.2
			c-1,0.9-2.1,1.3-3.4,1.3H143.8c-1.3,0-2.4-0.4-3.4-1.3s-1.4-1.9-1.4-3.2v-47.3c0-1.3,0.5-2.3,1.4-3.2s2.1-1.3,3.4-1.3h24.3v11.2
			c0,3,0.4,5.9,1.3,8.8c0.9,2.9,2.3,5.5,4.3,7.8c2,2.3,4.7,4.3,8,5.8s7.3,2.2,12,2.2s8.7-0.7,12-2.2c3.3-1.5,6-3.4,8.2-5.8
			c2.1-2.3,3.6-5,4.5-7.8s1.3-5.8,1.3-8.8v-11.2h73.2v11.2c0,3,0.4,5.9,1.3,8.8c0.9,2.9,2.3,5.5,4.3,7.8c2,2.3,4.7,4.3,8,5.8
			c3.3,1.5,7.3,2.2,12,2.2c4.7,0,8.7-0.7,12-2.2s6-3.4,8.2-5.8c2.1-2.3,3.6-5,4.5-7.8c0.9-2.9,1.3-5.8,1.3-8.8v-11.2H368.2
			L368.2,133.9z M368.2,206.5c1.3,0,2.4,0.4,3.4,1.3c1,0.9,1.4,1.9,1.4,3.2v161.2c0,1.3-0.5,2.4-1.4,3.4c-1,1-2.1,1.4-3.4,1.4H143.8
			c-1.3,0-2.4-0.5-3.4-1.4c-1-1-1.4-2.1-1.4-3.4V210.9c0-1.3,0.5-2.3,1.4-3.2s2.1-1.3,3.4-1.3L368.2,206.5L368.2,206.5z"/>
	</g>
</g>
</svg>
