<?xml version="1.0" encoding="utf-8"?>
<!-- Generator: Adobe Illustrator 19.2.1, SVG Export Plug-In . SVG Version: 6.00 Build 0)  -->
<svg version="1.1" id="Capa_1" xmlns="http://www.w3.org/2000/svg" xmlns:xlink="http://www.w3.org/1999/xlink" x="0px" y="0px"
	 viewBox="0 0 612 612" style="enable-background:new 0 0 612 612;" xml:space="preserve">
<g>
	<g id="_x39__43_">
		<g>
			<path d="M415.5,160h-73v36.5h54.8c10.1,0,18.2,8.2,18.2,18.2v54.8H452v-73C452,176.3,435.7,160,415.5,160z M160,196.5v73h36.5
				v-54.8c0-10.1,8.2-18.2,18.2-18.2h54.8V160h-73C176.3,160,160,176.3,160,196.5z M196.5,397.2v-54.8H160v73
				c0,20.2,16.3,36.5,36.5,36.5h73v-36.5h-54.8C204.7,415.5,196.5,407.3,196.5,397.2z M415.5,397.2c0,10.1-8.2,18.2-18.2,18.2h-54.8
				V452h73c20.2,0,36.5-16.3,36.5-36.5v-73h-36.5V397.2z"/>
		</g>
	</g>
</g>
</svg>
