<?xml version="1.0" encoding="utf-8"?>
<!-- Generator: Adobe Illustrator 18.1.1, SVG Export Plug-In . SVG Version: 6.00 Build 0)  -->
<svg version="1.1" id="Capa_1" xmlns="http://www.w3.org/2000/svg" xmlns:xlink="http://www.w3.org/1999/xlink" x="0px" y="0px"
	 viewBox="0 0 512 512" enable-background="new 0 0 512 512" xml:space="preserve">
<g>
	<g>
		<path d="M188.3,254.1l1.1-1l1.1,1c9.5,8.9,20,13.9,29.5,13.9c10,0,20.5-4.4,30-12.6l0.8-0.7l2.1,1c1.8,1.6,5,3.9,6.4,4.6l2,0.9
			l-0.3,0.3l0.8,0.4c1.8,1,3.8,2.1,6,3.3c2.2,0.9,4.1,1.7,6.2,2.4c0.4,0.2,9.8,3.2,20.6,8.2l2,0.6c10.3,3.9,14.6,9.4,14.7,9.6
			c15.9,23.6,18.6,75.2,18.8,81c-0.1,8-2.4,10.2-3,10.5c-35.7,16-89.5,20.1-100,20.8H227l-0.3-0.1c-0.3-0.1-0.7-0.2-1.1-0.2l0,0
			h-0.3c-2.8,0.2-5.2,0.3-7.4,0.3h-1.7c-6.5-0.4-64.6-4.2-101.8-20.7c-0.8-0.3-3-2.8-3.1-10.3c0-0.5,1.9-56.2,18.7-81.1
			c0.9-1,5.4-6.3,14.5-9.8c8-2.5,27.7-9,38.5-16.8c0.4-0.3,0.9-0.8,1.4-1.2C184.7,257.6,186.5,255.8,188.3,254.1z M299.5,268
			l-1.5-0.4c-2.4-1.1-5-2.2-7.6-3.3c3.7-1.7,6.8-3.4,9-5.1c0.3-0.2,0.8-0.6,1-0.9c0.9-0.9,1.9-2.1,3.2-3.3l0.7-0.6l0.7,0.7
			c7.1,6.7,14.9,10.4,22.1,10.4c7.5,0,15.2-3.3,22.4-9.4l0.5-0.4l1.5,0.7c1.3,1.2,3.7,2.9,4.8,3.5l1.2,0.6l-0.2,0.2l0.8,0.4
			c1.4,0.8,2.8,1.5,4.5,2.4c1.6,0.8,3.1,1.3,4.6,1.8c0.3,0.1,7.3,2.3,15.3,6.1l1.5,0.4c7.4,2.8,10.5,6.7,10.9,7
			c11.9,17.6,13.8,55.7,14,60c-0.1,5.9-1.7,7.4-2.1,7.7c-22.3,10-54.4,13.8-67.9,15c-1.2-17.6-5.6-58.7-19.9-80.2l-0.6-0.8
			C315.1,276.7,308.8,271.6,299.5,268z M291.1,204.3l0.3-0.3c1.1-0.9,1.7-2.1,1.5-3.4c-2.7-16.1-0.9-22.9-0.3-24.6
			c4.7-14.4,19.4-21.1,22.3-22.3c0.6-0.3,1.7-0.6,2.9-0.8l0.3-0.1l2.2-0.1v0.2l0.7-0.1c0.5,0,1-0.1,1.3-0.2l0.8-0.2
			c0.5,0,6.2,0.8,14.7,3.3l5.9,2.1c10.8,3.2,15.8,9.2,16.7,10.4c8.6,9.8,6.3,24.7,4.2,32.6c-0.3,1-0.1,2,0.5,2.8l0.5,0.6
			c0.6,0.9,1.2,4-0.7,11c-0.3,2.1-1.1,3.9-2.3,5c-0.4,0.5-0.8,1.1-0.9,1.8c-2.9,17.2-18.3,36.4-34.5,36.4
			c-13.8,0-29.5-17.6-32.3-36.4c-0.1-0.7-0.4-1.4-0.9-1.9c-1.1-1.2-1.9-2.9-2.3-5.6C290.2,209.8,290,205.8,291.1,204.3z
			 M171.4,185.7l0.3-0.4c1.5-1,2.1-2.7,1.9-4.4c-3.6-21.8-1.3-30.9-0.4-33.2c6.3-19.4,26.2-28.5,30.1-30c0.9-0.3,2.3-0.8,3.9-1
			l0.4-0.1l3.3-0.2v0.2l0.7-0.1c0.7-0.1,1.3-0.2,2.1-0.3l0.8-0.2c0.6,0,8.3,0.9,19.9,4.5l8,2.7c14.6,4.3,21.4,12.4,22.6,14
			c11.7,13.3,8.6,33.3,5.7,44.1c-0.3,1.2-0.2,2.6,0.6,3.6l0.7,0.9c1,1.5,1.5,6.2-0.9,15.1c-0.5,2.9-1.5,5.2-3.2,6.8
			c-0.6,0.6-0.9,1.5-1.1,2.3c-3.9,23.2-24.7,49.2-46.7,49.2c-18.7,0-39.9-23.9-43.7-49.1c-0.1-0.9-0.5-1.7-1.2-2.4
			c-1.6-1.6-2.7-4-3.3-7.5C170.1,193.3,169.9,187.9,171.4,185.7z"/>
	</g>
</g>
</svg>
