<?xml version="1.0" encoding="utf-8"?>
<!-- Generator: Adobe Illustrator 18.1.1, SVG Export Plug-In . SVG Version: 6.00 Build 0)  -->
<svg version="1.1" id="Laag_1" xmlns="http://www.w3.org/2000/svg" xmlns:xlink="http://www.w3.org/1999/xlink" x="0px" y="0px"
	 viewBox="-108 178 294 158" enable-background="new -108 178 294 158" xml:space="preserve">
<g>
	<path fill="#0081BF" d="M89.8,252c-0.3,7.9-2.7,14.3-7.2,19c-4.5,4.8-9.8,7.2-16,7.2c-5,0-9.4-2.3-13.2-7
		c-3.8-4.7-5.7-11.9-5.7-21.5c0-2.1,0.1-4.2,0.2-6.1c0.1-1.9,0.3-3.8,0.5-5.5l3.3-25.2H29.6c-3.8,31.8-7,50.8-9.4,56.8
		c-2.5,6-6.6,9.1-12.5,9.1c-2.5,0-4.8-0.8-7.1-2.4c-2.2-1.6-3.3-3.7-3.3-6.3c0-2.3,2.3-5.6,6.9-9.8s7.2-8,7.7-11.5l5.7-35.9H8.3
		c-2.5,0-5.1,0.5-7.5,1.5c-2.5,1-4.3,2.2-5.4,3.5l-4.1,4.9H-12c3.1-7.8,7-13.6,11.5-17.5c4.6-3.9,9.8-5.9,15.7-5.9h73v13.5H63.5
		c-0.8,6.1-1.4,12.2-1.8,18.4c-0.4,6.1-0.6,12.3-0.6,18.4c0,4.2,1.2,7.6,3.6,10.2c2.4,2.6,5.4,3.9,9.1,3.9c2.2,0,4.6-0.7,7-2.2
		c2.5-1.5,3.8-3.4,4.2-5.7c0.2-1.1,0.3-2,0.4-2.6c0.1-0.6,0.1-1,0.1-1.2h4.3V252z"/>
</g>
<rect x="-111" y="296.5" fill="none" width="300" height="36"/>
<g>
	<path fill="#0081BF" d="M-50.6,299.9v23.3h-4.5v-23.3H-50.6z"/>
	<path fill="#0081BF" d="M-39.1,299.9l13.8,16.3v-16.3h4.4v23.3h-3.9l-13.9-16.5v16.5H-43v-23.3H-39.1z"/>
	<path fill="#0081BF" d="M6,299.9v3.5h-8.3v19.8h-4.5v-19.8H-15v-3.5H6z"/>
	<path fill="#0081BF" d="M20.2,299.9c2.2,0,4,0.6,5.4,1.8c1.4,1.2,2.1,2.8,2.1,4.7c0,1.3-0.3,2.5-1,3.5s-1.7,1.8-3,2.3
		c0.7,0.4,1.4,0.9,2,1.6s1.3,1.9,2.2,3.5c1.4,2.8,2.5,4.8,3.2,5.8h-5c-0.3-0.5-0.8-1.3-1.4-2.5c-1.3-2.5-2.2-4.1-2.8-5
		c-0.6-0.9-1.2-1.5-1.7-1.8c-0.6-0.4-1.2-0.5-1.9-0.5h-1.6v9.8h-4.5v-23.3H20.2z M19.2,309.8c1.2,0,2.1-0.3,2.8-0.9
		c0.7-0.6,1-1.4,1-2.4c0-1.1-0.3-1.9-1-2.4c-0.7-0.5-1.6-0.8-2.9-0.8h-2.8v6.5H19.2z"/>
	<path fill="#0081BF" d="M48,299.9l10.3,23.3h-4.8l-2.4-5.7H40.8l-2.3,5.7h-4.7l9.6-23.3H48z M42.1,314.1h7.5l-3.9-9.2L42.1,314.1z"
		/>
	<path fill="#0081BF" d="M67.3,299.9l13.8,16.3v-16.3h4.4v23.3h-3.9l-13.9-16.5v16.5h-4.4v-23.3H67.3z"/>
	<path fill="#0081BF" d="M108.1,299.9v3.5H97.6v6.1h10.1v3.5H97.6v6.6h10.8v3.5H93.1v-23.3H108.1z"/>
	<path fill="#0081BF" d="M134.3,299.9v3.5H126v19.8h-4.5v-19.8h-8.3v-3.5H134.3z"/>
</g>
</svg>
