<?xml version="1.0" encoding="utf-8"?>
<!-- Generator: Adobe Illustrator 18.1.0, SVG Export Plug-In . SVG Version: 6.00 Build 0)  -->
<!DOCTYPE svg PUBLIC "-//W3C//DTD SVG 1.1//EN" "http://www.w3.org/Graphics/SVG/1.1/DTD/svg11.dtd">
<svg version="1.1" id="Laag_1" xmlns="http://www.w3.org/2000/svg" xmlns:xlink="http://www.w3.org/1999/xlink" x="0px" y="0px"
	 width="294px" height="158px" viewBox="0 0 294 158" enable-background="new 0 0 294 158" xml:space="preserve">
<g>
	<path fill="#0081BF" d="M197.8,74c-0.3,7.9-2.7,14.3-7.2,19c-4.5,4.8-9.8,7.2-16,7.2c-5,0-9.4-2.3-13.2-7
		c-3.8-4.7-5.7-11.9-5.7-21.5c0-2.1,0.1-4.2,0.2-6.1c0.1-1.9,0.3-3.8,0.5-5.5l3.3-25.2h-22.1c-3.8,31.8-7,50.8-9.4,56.8
		c-2.5,6-6.6,9.1-12.5,9.1c-2.5,0-4.8-0.8-7.1-2.4c-2.2-1.6-3.3-3.7-3.3-6.3c0-2.3,2.3-5.6,6.9-9.8c4.6-4.2,7.2-8,7.7-11.5l5.7-35.9
		h-9.3c-2.5,0-5.1,0.5-7.5,1.5c-2.5,1-4.3,2.2-5.4,3.5l-4.1,4.9H96c3.1-7.8,7-13.6,11.5-17.5c4.6-3.9,9.8-5.9,15.7-5.9h73v13.5
		h-24.7c-0.8,6.1-1.4,12.2-1.8,18.4c-0.4,6.1-0.6,12.3-0.6,18.4c0,4.2,1.2,7.6,3.6,10.2c2.4,2.6,5.4,3.9,9.1,3.9
		c2.2,0,4.6-0.7,7-2.2c2.5-1.5,3.8-3.4,4.2-5.7c0.2-1.1,0.3-2,0.4-2.6c0.1-0.6,0.1-1,0.1-1.2H197.8z"/>
</g>
<rect x="-3" y="118.5" fill="none" width="300" height="36"/>
<text transform="matrix(1 0 0 1 10.166 148.4033)" fill="#0081BF" font-family="'SourceSansPro-Regular'" font-size="42" letter-spacing="1">Plone Intranet</text>
</svg>
