<?xml version="1.0" encoding="utf-8"?>
<!-- Generator: Adobe Illustrator 18.1.1, SVG Export Plug-In . SVG Version: 6.00 Build 0)  -->
<svg version="1.1" id="Layer_1" xmlns="http://www.w3.org/2000/svg" xmlns:xlink="http://www.w3.org/1999/xlink" x="0px" y="0px"
	 viewBox="0 346 524 133.2" enable-background="new 0 346 524 133.2" xml:space="preserve">
<g>
	<path d="M19.2,387.1v62.6H7.1v-62.6H19.2z"/>
	<path d="M50.3,387.1l37.2,43.7v-43.7h11.8v62.6H88.9l-37.4-44.4v44.4H39.7v-62.6H50.3z"/>
	<path d="M171.4,387.1v9.4h-22.2v53.1h-12.1v-53.1h-22.2v-9.4H171.4z"/>
	<path d="M209.5,387.1c5.9,0,10.7,1.6,14.4,4.9c3.7,3.3,5.6,7.5,5.6,12.7c0,3.6-0.9,6.6-2.8,9.3c-1.8,2.6-4.6,4.7-8.2,6.2
		c2,1.1,3.8,2.5,5.3,4.4c1.6,1.9,3.5,5,5.8,9.4c3.8,7.6,6.7,12.8,8.5,15.7h-13.5c-0.9-1.4-2.2-3.6-3.8-6.6c-3.5-6.7-6-11.1-7.6-13.5
		c-1.6-2.3-3.2-4-4.7-4.9c-1.5-1-3.2-1.5-5.1-1.5h-4.4v26.4H187v-62.6H209.5z M206.8,413.8c3.2,0,5.6-0.8,7.5-2.4
		c1.8-1.6,2.7-3.7,2.7-6.5c0-2.9-0.9-5-2.7-6.4c-1.8-1.4-4.3-2.1-7.7-2.1h-7.5v17.4H206.8z"/>
	<path d="M284.2,387.1l27.6,62.6H299l-6.5-15.2h-27.8l-6,15.2H246l25.8-62.6H284.2z M268.4,425.2h20.2L278,400.5L268.4,425.2z"/>
	<path d="M336.2,387.1l37.2,43.7v-43.7h11.8v62.6h-10.4l-37.4-44.4v44.4h-11.8v-62.6H336.2z"/>
	<path d="M445.8,387.1v9.4h-28.3V413h27.1v9.4h-27.1v17.8h29v9.4h-41.1v-62.6H445.8z"/>
	<path d="M516,387.1v9.4h-22.2v53.1h-12.1v-53.1h-22.2v-9.4H516z"/>
</g>
</svg>
