<?xml version="1.0" encoding="utf-8"?>
<!-- Generator: Adobe Illustrator 18.1.1, SVG Export Plug-In . SVG Version: 6.00 Build 0)  -->
<svg version="1.1" id="Layer_1" xmlns="http://www.w3.org/2000/svg" xmlns:xlink="http://www.w3.org/1999/xlink" x="0px" y="0px"
	 viewBox="0 323 482 128" enable-background="new 0 323 482 128" xml:space="preserve">
<path fill="#FFFFFF" d="M86.7,336.2v39.6c0,2.5,2,4.6,4.6,4.6h40.1c2.5,0,4.6-2.1,4.6-4.6c0-2.5-2.1-4.6-4.6-4.6H95.9v-35
	c0-2.5-2-4.6-4.6-4.6C88.8,331.6,86.7,333.7,86.7,336.2"/>
<path fill="#FFFFFF" d="M38,385.2c-2.5,0-4.6,2.1-4.6,4.6c0,2.5,2.1,4.6,4.6,4.6h35.5v35c0,2.5,2.1,4.6,4.6,4.6
	c2.5,0,4.6-2.1,4.6-4.6v-39.6c0-2.5-2.1-4.6-4.6-4.6L38,385.2L38,385.2z"/>
<g enable-background="new    ">
	<path fill="#FFFFFF" d="M178.4,363.2h-18.1v-13h18.1V363.2z M177.9,424.2h-17.2v-53.4h17.2V424.2z"/>
	<path fill="#FFFFFF" d="M264.7,424.2h-22.4L221,395.9l-4.2,5.2v23.1h-18.3v-70.8h18.3v32.1l25.3-32.1h21.2l-27.7,32.8L264.7,424.2z
		"/>
	<path fill="#FFFFFF" d="M308.6,418.5c-0.9,0.7-2.1,1.5-3.4,2.5c-1.4,1-2.6,1.8-3.9,2.3c-1.7,0.8-3.4,1.3-5.2,1.7
		c-1.8,0.4-3.8,0.5-5.9,0.5c-5.1,0-9.3-1.6-12.7-4.7c-3.4-3.1-5.1-7.2-5.1-12c0-3.9,0.9-7.1,2.6-9.6c1.7-2.5,4.2-4.4,7.4-5.9
		c3.2-1.4,7.1-2.4,11.8-3c4.7-0.6,9.6-1,14.6-1.3v-0.3c0-3-1.2-5-3.6-6.1c-2.4-1.1-6-1.7-10.7-1.7c-2.8,0-5.8,0.5-9,1.5
		c-3.2,1-5.5,1.8-6.9,2.3h-1.6v-12.9c1.8-0.5,4.7-1,8.8-1.7c4.1-0.6,8.2-1,12.2-1c9.7,0,16.8,1.5,21.1,4.5c4.3,3,6.5,7.7,6.5,14.1
		v36.3h-17V418.5z M308.6,410.2v-11.1c-2.3,0.2-4.8,0.5-7.5,0.8c-2.7,0.3-4.7,0.7-6.1,1.2c-1.7,0.5-3,1.3-3.9,2.3
		c-0.9,1-1.4,2.4-1.4,4.1c0,1.1,0.1,2,0.3,2.7c0.2,0.7,0.7,1.4,1.4,2c0.7,0.6,1.6,1.1,2.6,1.4c1,0.3,2.6,0.5,4.8,0.5
		c1.7,0,3.4-0.3,5.2-1C305.7,412.3,307.2,411.4,308.6,410.2z"/>
	<path fill="#FFFFFF" d="M379,423.7c-1.8,0.5-3.8,0.8-5.9,1.1s-4.6,0.4-7.6,0.4c-6.7,0-11.6-1.3-14.9-4c-3.3-2.7-4.9-7.3-4.9-13.8
		v-25h-7v-11.6h7v-15.3H363v15.3h16v11.6h-16v19c0,1.9,0,3.5,0,4.9c0,1.4,0.3,2.7,0.8,3.8c0.4,1.1,1.2,2,2.3,2.6
		c1.1,0.7,2.8,1,4.9,1c0.9,0,2-0.2,3.5-0.6c1.4-0.4,2.4-0.7,3-1h1.4V423.7z"/>
	<path fill="#FFFFFF" d="M446.3,424.2h-17.2v-26.5c0-2.2-0.1-4.3-0.3-6.4c-0.2-2.1-0.6-3.7-1.1-4.7c-0.6-1.2-1.6-2-2.8-2.6
		s-2.9-0.8-5.1-0.8c-1.6,0-3.1,0.3-4.7,0.8c-1.6,0.5-3.3,1.3-5.2,2.4v37.9h-17.2v-74h17.2v26.5c3-2.4,6-4.2,8.8-5.5
		c2.8-1.3,5.9-1.9,9.3-1.9c5.8,0,10.3,1.7,13.5,5s4.9,8.4,4.9,15.1V424.2z"/>
</g>
</svg>
