<?xml version="1.0" encoding="utf-8"?>
<!-- Generator: Adobe Illustrator 18.1.1, SVG Export Plug-In . SVG Version: 6.00 Build 0)  -->
<svg version="1.1" id="Layer_1" xmlns="http://www.w3.org/2000/svg" xmlns:xlink="http://www.w3.org/1999/xlink" x="0px" y="0px"
	 viewBox="146 0 366 121" enable-background="new 146 0 366 121" xml:space="preserve">
<g enable-background="new    ">
	<path fill="#FFFFFF" d="M228.9,42.6H214V31.9h14.9V42.6z M228.5,92.8h-14.2v-44h14.2V92.8z"/>
	<path fill="#FFFFFF" d="M300,92.8h-18.4L264,69.5l-3.5,4.3v19h-15.1V34.5h15.1V61l20.8-26.4h17.5l-22.8,27L300,92.8z"/>
	<path fill="#FFFFFF" d="M336.2,88.1c-0.7,0.6-1.7,1.2-2.8,2.1c-1.2,0.8-2.1,1.5-3.2,1.9c-1.4,0.7-2.8,1.1-4.3,1.4
		c-1.5,0.3-3.1,0.4-4.9,0.4c-4.2,0-7.7-1.3-10.5-3.9c-2.8-2.6-4.2-5.9-4.2-9.9c0-3.2,0.7-5.8,2.1-7.9c1.4-2.1,3.5-3.6,6.1-4.9
		c2.6-1.2,5.8-2,9.7-2.5c3.9-0.5,7.9-0.8,12-1.1v-0.2c0-2.5-1-4.1-3-5c-2-0.9-4.9-1.4-8.8-1.4c-2.3,0-4.8,0.4-7.4,1.2
		c-2.6,0.8-4.5,1.5-5.7,1.9h-1.3V49.7c1.5-0.4,3.9-0.8,7.2-1.4c3.4-0.5,6.8-0.8,10-0.8c8,0,13.8,1.2,17.4,3.7
		c3.5,2.5,5.4,6.3,5.4,11.6v29.9h-14L336.2,88.1L336.2,88.1z M336.2,81.3v-9.1c-1.9,0.2-4,0.4-6.2,0.7c-2.2,0.2-3.9,0.6-5,1
		c-1.4,0.4-2.5,1.1-3.2,1.9c-0.7,0.8-1.2,2-1.2,3.4c0,0.9,0.1,1.6,0.2,2.2s0.6,1.2,1.2,1.6s1.3,0.9,2.1,1.2c0.8,0.2,2.1,0.4,4,0.4
		c1.4,0,2.8-0.2,4.3-0.8C333.8,83,335,82.3,336.2,81.3z"/>
	<path fill="#FFFFFF" d="M394.1,92.4c-1.5,0.4-3.1,0.7-4.9,0.9c-1.7,0.2-3.8,0.3-6.3,0.3c-5.5,0-9.6-1.1-12.3-3.3s-4-6-4-11.4V58.4
		H361v-9.6h5.8V36.3H381v12.6h13.2v9.6H381v15.6c0,1.6,0,2.9,0,4c0,1.2,0.2,2.2,0.7,3.1c0.3,0.9,1,1.6,1.9,2.1
		c0.9,0.6,2.3,0.8,4,0.8c0.7,0,1.6-0.2,2.9-0.5c1.2-0.3,2-0.6,2.5-0.8h1.2L394.1,92.4L394.1,92.4z"/>
	<path fill="#FFFFFF" d="M449.6,92.8h-14.2V71c0-1.8-0.1-3.5-0.2-5.3s-0.5-3-0.9-3.9c-0.5-1-1.3-1.6-2.3-2.1c-1-0.5-2.4-0.7-4.2-0.7
		c-1.3,0-2.6,0.2-3.9,0.7s-2.7,1.1-4.3,2v31.2h-14.2V32h14.2v21.8c2.5-2,4.9-3.5,7.2-4.5s4.9-1.6,7.7-1.6c4.8,0,8.5,1.4,11.1,4.1
		c2.6,2.7,4,6.9,4,12.4L449.6,92.8L449.6,92.8z"/>
</g>
</svg>
