<?xml version="1.0" encoding="utf-8"?>
<!-- Generator: Adobe Illustrator 18.1.1, SVG Export Plug-In . SVG Version: 6.00 Build 0)  -->
<svg version="1.1" id="Laag_1" xmlns="http://www.w3.org/2000/svg" xmlns:xlink="http://www.w3.org/1999/xlink" x="0px" y="0px"
	 viewBox="0 0 512 512" enable-background="new 0 0 512 512" xml:space="preserve">
<rect fill="#F8B11A" width="512" height="512"/>
<path fill="#1A1C3F" d="M427.3,256c0,93.8-77.5,171.3-171.3,171.3S84.7,349.8,84.7,256c0-97.9,77.5-171.3,175.4-171.3
	C353.9,84.7,427.3,162.2,427.3,256 M101,256c0,85.7,69.3,155,155,155s155-69.3,155-155c0-85.7-69.3-155-155-155
	C170.3,101,101,170.3,101,256 M211.1,251.9L211.1,251.9c-12.2,0-16.3,0-20.4-4.1c-4.1,0-8.2-4.1-20.4-8.2v4.1l4.1,4.1l16.3,8.2
	c16.3,8.2,24.5,12.2,36.7,12.2c24.5,0,44.9-16.3,57.1-49c12.2,0,28.6-4.1,44.9-4.1c20.4,0,40.8,4.1,77.5,8.2l-8.2,8.2
	c-24.5-4.1-44.9-4.1-65.3-4.1c-4.1,0-8.2,0-16.3,0l-4.1,4.1c8.2,0,8.2,0,16.3,0c20.4,0,40.8,0,65.3,4.1l-8.2,8.2
	c-20.4-4.1-36.7-4.1-57.1-4.1c-8.2,0-12.2,0-20.4,0l-4.1,4.1c8.2,0,12.2,0,16.3,0c24.5,0,44.9,0,61.2,4.1l-8.2,8.2
	c-20.4-4.1-28.6-4.1-44.9-4.1c-12.2,0-20.4,0-32.6,0l-4.1,4.1c12.2,0,20.4-4.1,36.7-4.1c12.2,0,20.4,0,36.7,4.1l-8.2,8.2
	c-8.2,0-16.3,0-24.5,0c-32.6,0-53,4.1-77.5,20.4c20.4,20.4,57.1,36.7,85.7,36.7l-8.2,12.2c-61.2-16.3-93.8-28.6-142.8-61.2
	c-40.8-24.5-53-32.6-81.6-40.8l4.1-8.2c12.2,4.1,16.3,4.1,20.4,8.2l4.1-8.2L211.1,251.9"/>
</svg>
