<?xml version="1.0" encoding="utf-8"?>
<!-- Generator: Adobe Illustrator 18.1.1, SVG Export Plug-In . SVG Version: 6.00 Build 0)  -->
<svg version="1.1" id="Layer_1" xmlns="http://www.w3.org/2000/svg" xmlns:xlink="http://www.w3.org/1999/xlink" x="0px" y="0px"
	 viewBox="0 0 512 100" enable-background="new 0 0 512 100" xml:space="preserve">
<g>
	<path fill="#FFFFFF" d="M18.8,18.7v61.2H6.9V18.7H18.8z"/>
	<path fill="#FFFFFF" d="M49.1,18.7l36.3,42.7V18.7H97v61.2H86.9L50.3,36.5v43.4H38.8V18.7H49.1z"/>
	<path fill="#FFFFFF" d="M167.5,18.7v9.2h-21.7v51.9H134V27.9h-21.7v-9.2H167.5z"/>
	<path fill="#FFFFFF" d="M204.7,18.7c5.8,0,10.5,1.6,14.1,4.8c3.6,3.2,5.5,7.3,5.5,12.4c0,3.5-0.9,6.4-2.7,9.1
		c-1.8,2.5-4.5,4.6-8,6.1c2,1.1,3.7,2.4,5.2,4.3c1.6,1.9,3.4,4.9,5.7,9.2c3.7,7.4,6.5,12.5,8.3,15.3h-13.2c-0.9-1.4-2.1-3.5-3.7-6.4
		c-3.4-6.5-5.9-10.8-7.4-13.2c-1.6-2.2-3.1-3.9-4.6-4.8c-1.5-1-3.1-1.5-5-1.5h-4.3v25.8h-11.7V18.6L204.7,18.7L204.7,18.7z
		 M202.1,44.8c3.1,0,5.5-0.8,7.3-2.3c1.8-1.6,2.6-3.6,2.6-6.4c0-2.8-0.9-4.9-2.6-6.3c-1.8-1.4-4.2-2.1-7.5-2.1h-7.3v17H202.1z"/>
	<path fill="#FFFFFF" d="M277.7,18.7l27,61.2h-12.5L285.8,65h-27.2l-5.9,14.9h-12.4l25.2-61.2H277.7z M262.3,56H282l-10.4-24.1
		L262.3,56z"/>
	<path fill="#FFFFFF" d="M328.5,18.7l36.3,42.7V18.7h11.5v61.2h-10.2l-36.5-43.4v43.4h-11.5V18.7H328.5z"/>
	<path fill="#FFFFFF" d="M435.6,18.7v9.2h-27.7V44h26.5v9.2h-26.5v17.4h28.3v9.2h-40.2V18.6L435.6,18.7L435.6,18.7z"/>
	<path fill="#FFFFFF" d="M504.2,18.7v9.2h-21.7v51.9h-11.8V27.9H449v-9.2H504.2z"/>
</g>
</svg>
