<?xml version="1.0" encoding="utf-8"?>
<!-- Generator: Adobe Illustrator 18.1.1, SVG Export Plug-In . SVG Version: 6.00 Build 0)  -->
<svg version="1.1" id="Laag_1" xmlns="http://www.w3.org/2000/svg" xmlns:xlink="http://www.w3.org/1999/xlink" x="0px" y="0px"
	 viewBox="0 0 512 512" enable-background="new 0 0 512 512" xml:space="preserve">
<g>
	<g>
		<path opacity="0.5" fill="#FFFFFF" d="M255.2,241.6c1.9,4.7,7.2,7,12,5.2c23.5-9.3,87.2-34.4,88.5-34.9c26.9-10.7,40-41.1,29.4-68
			c-10.6-26.8-41-40-67.9-29.4c-10.8-26.8-41.1-39.8-68-29.2c-26.9,10.7-40,41.1-29.4,68C220.4,154.6,245.8,218.2,255.2,241.6z"/>
		<path opacity="0.5" fill="#FFFFFF" d="M256.8,270.9c-1.9-4.7-7.3-7-12-5.2c-23.5,9.2-87.2,34.4-88.5,34.9
			c-26.9,10.7-40,41.1-29.4,68.1c10.7,26.8,41,40,67.9,29.4c10.7,26.8,41.1,39.8,68,29.2c26.9-10.7,40-41.1,29.4-68.1
			C291.6,358,266.2,294.3,256.8,270.9z"/>
		<path fill="#FFFFFF" d="M427,249.5c-10.7-26.9-41.1-40-68.1-29.4c-1.3,0.5-64.9,26-88.3,35.3c-4.7,1.9-7,7.2-5.2,12
			c9.2,23.5,34.4,87.2,34.9,88.5c10.7,26.9,41.2,40,68.1,29.4c26.8-10.7,40-41,29.4-67.9C424.6,306.7,437.7,276.4,427,249.5z"/>
		<path opacity="0.5" fill="#FFFFFF" d="M241.4,257.1c4.7-1.9,7-7.2,5.2-12c-9.3-23.5-34.4-87.2-34.9-88.5
			c-10.7-26.9-41.1-40-68-29.4c-26.8,10.7-40,41-29.4,67.9c-26.8,10.7-39.8,41.1-29.2,68c10.7,26.9,41.1,40,68,29.4
			C154.3,291.9,218,266.4,241.4,257.1z"/>
	</g>
</g>
</svg>
