<?xml version="1.0" encoding="utf-8"?>
<!-- Generator: Adobe Illustrator 19.1.0, SVG Export Plug-In . SVG Version: 6.00 Build 0)  -->
<!DOCTYPE svg PUBLIC "-//W3C//DTD SVG 1.1//EN" "http://www.w3.org/Graphics/SVG/1.1/DTD/svg11.dtd">
<svg version="1.1" id="Laag_1" xmlns="http://www.w3.org/2000/svg" xmlns:xlink="http://www.w3.org/1999/xlink" x="0px" y="0px"
	 width="512px" height="512px" viewBox="-223 25 512 512" style="enable-background:new -223 25 512 512;" xml:space="preserve">
<style type="text/css">
	.st0{fill:#868686;}
	.st1{fill:#094667;}
</style>
<path class="st0" d="M-11.2,419.9c-2.4,0.6-5.5,1.3-9.4,1.9c-3.8,0.7-8.1,1-12.6,1c-4.3,0-7.9-0.6-10.8-1.9c-2.9-1.2-5.2-2.9-7-5.1
	c-1.7-2.2-3-4.8-3.8-7.9c-0.8-3-1.1-6.4-1.1-10v-30.1h12.4V396c0,5.8,0.8,9.9,2.5,12.3c1.7,2.5,4.6,3.7,8.8,3.7
	c1.5,0,3.1-0.1,4.8-0.2c1.7-0.1,2.9-0.3,3.8-0.5v-43.5h12.4V419.9z"/>
<path class="st0" d="M22.6,366.4c4.1,0,7.6,0.5,10.4,1.5c2.8,1,5.1,2.5,6.7,4.3c1.7,1.9,2.9,4.1,3.6,6.7c0.7,2.6,1.1,5.5,1.1,8.7
	v32.6c-1.9,0.4-4.8,0.9-8.7,1.5c-3.9,0.6-8.2,0.9-13.1,0.9c-3.2,0-6.2-0.3-8.8-0.9c-2.7-0.6-5-1.6-6.8-3c-1.9-1.4-3.4-3.2-4.4-5.3
	c-1.1-2.2-1.6-4.9-1.6-8.1c0-3.1,0.6-5.7,1.8-7.8c1.2-2.1,2.8-3.9,4.9-5.2c2.1-1.3,4.4-2.3,7.1-2.9c2.7-0.6,5.5-0.9,8.5-0.9
	c1.4,0,2.8,0.1,4.3,0.3c1.5,0.2,3.1,0.5,4.8,0.9v-2.1c0-1.4-0.2-2.8-0.5-4.1c-0.3-1.3-0.9-2.5-1.8-3.4c-0.9-1-2-1.8-3.4-2.3
	c-1.4-0.5-3.2-0.8-5.3-0.8c-2.9,0-5.5,0.2-7.9,0.6c-2.4,0.4-4.4,0.9-5.9,1.4L6,368.9c1.6-0.5,3.9-1.1,6.9-1.6
	C15.9,366.7,19.1,366.4,22.6,366.4z M23.6,412.8c3.8,0,6.8-0.2,8.7-0.6v-13.8c-0.7-0.2-1.7-0.4-3-0.6c-1.3-0.2-2.7-0.3-4.3-0.3
	c-1.4,0-2.8,0.1-4.2,0.3c-1.4,0.2-2.7,0.6-3.8,1.1c-1.1,0.5-2,1.3-2.7,2.3c-0.7,1-1,2.2-1,3.8c0,2.9,0.9,5,2.8,6.1
	C17.9,412.3,20.4,412.8,23.6,412.8z"/>
<path class="st0" d="M73.5,352.1c0,2.3-0.8,4.2-2.3,5.6c-1.5,1.4-3.3,2.1-5.3,2.1c-2.1,0-3.9-0.7-5.5-2.1c-1.5-1.4-2.3-3.2-2.3-5.6
	c0-2.4,0.8-4.3,2.3-5.7c1.5-1.4,3.3-2.1,5.5-2.1c2.1,0,3.8,0.7,5.3,2.1C72.7,347.8,73.5,349.7,73.5,352.1z M72.1,421.6H59.7v-53.8
	h12.4V421.6z"/>
<path class="st0" d="M101.8,421.6c-3.4-7.1-7-15.2-10.6-24.3c-3.6-9.2-6.9-19-9.9-29.5h13.3c0.8,3,1.6,6.3,2.6,9.7
	c1,3.5,2.1,6.9,3.2,10.4c1.1,3.5,2.3,6.8,3.5,10.1c1.2,3.3,2.3,6.2,3.4,8.8c1-2.6,2.1-5.5,3.3-8.8c1.2-3.3,2.3-6.6,3.5-10.1
	c1.1-3.5,2.2-6.9,3.3-10.4c1-3.5,1.9-6.7,2.7-9.7h12.9c-3,10.5-6.2,20.3-9.9,29.5c-3.6,9.2-7.1,17.3-10.6,24.3H101.8z"/>
<path class="st0" d="M137.8,394.9c0-4.7,0.7-8.9,2.1-12.4c1.4-3.6,3.3-6.5,5.6-8.9c2.3-2.4,5-4.1,8-5.3c3-1.2,6.1-1.8,9.3-1.8
	c7.4,0,13.2,2.3,17.3,6.9c4.1,4.6,6.2,11.4,6.2,20.6c0,0.7,0,1.5-0.1,2.3c0,0.9-0.1,1.6-0.2,2.3h-35.5c0.3,4.3,1.9,7.7,4.6,10
	c2.7,2.4,6.6,3.5,11.8,3.5c3,0,5.8-0.3,8.3-0.8c2.5-0.5,4.5-1.1,5.9-1.7l1.6,10.2c-0.7,0.3-1.6,0.7-2.8,1.1c-1.2,0.4-2.6,0.7-4.1,1
	c-1.5,0.3-3.2,0.6-5,0.8c-1.8,0.2-3.6,0.3-5.5,0.3c-4.7,0-8.8-0.7-12.3-2.1c-3.5-1.4-6.4-3.4-8.6-5.9c-2.3-2.5-3.9-5.5-5-8.8
	C138.4,402.7,137.8,399,137.8,394.9z M173.9,389.4c0-1.7-0.2-3.3-0.7-4.9c-0.5-1.5-1.2-2.9-2.1-4c-0.9-1.1-2.1-2-3.4-2.7
	c-1.3-0.7-2.9-1-4.8-1c-1.9,0-3.6,0.4-5,1.1c-1.4,0.7-2.7,1.7-3.7,2.8c-1,1.2-1.8,2.5-2.3,4c-0.5,1.5-0.9,3.1-1.1,4.6H173.9z"/>
<path class="st0" d="M-56.9,433.4c-5.9-5.7-10.9-11.2-15.8-17.2c2.3-2.6,4.1-5.7,5.4-9.3c1.3-3.7,2-7.9,2-12.4c0-4.5-0.7-8.6-2-12.3
	c-1.4-3.7-3.2-6.9-5.6-9.5c-2.4-2.6-5.3-4.7-8.7-6.1c-3.4-1.4-7.1-2.1-11.1-2.1c-4,0-7.7,0.7-11.1,2.1c-3.4,1.4-6.3,3.5-8.7,6.1
	c-2.5,2.6-4.4,5.8-5.7,9.5c-1.4,3.7-2,7.8-2,12.3c0,4.5,0.7,8.7,2,12.4c1.4,3.7,3.2,6.9,5.6,9.5c2.4,2.6,5.3,4.7,8.7,6.1
	c3.4,1.5,7.1,2.2,11.2,2.2c3.9,0,7.4-0.7,10.7-2c4,6.5,8.4,12.7,13.4,18.6C-63.8,438.4-61.4,436.7-56.9,433.4z M-103.1,408.2
	c-2.4-3.4-3.7-7.9-3.7-13.7c0-5.7,1.2-10.2,3.7-13.5c2.5-3.3,5.9-5,10.3-5c4.4,0,7.8,1.7,10.3,5c2.4,3.3,3.7,7.8,3.7,13.5
	c0,5.8-1.2,10.3-3.7,13.7c-2.5,3.4-5.9,5-10.3,5C-97.2,413.2-100.6,411.6-103.1,408.2z"/>
<path class="st1" d="M69.5,312.6c-4-18.2-20.2-31.8-39.5-31.8c-19.4,0-35.6,13.6-39.5,31.8c12,5.5,25.4,8.6,39.5,8.6
	C44.1,321.2,57.4,318.1,69.5,312.6z"/>
<path class="st1" d="M124.4,226.8c0-3.7-0.2-7.4-0.7-11.1c-18.5-1.8-36.5,9.3-42.4,27.8c-6,18.4,2,38,18,47.4
	C114.9,274,124.4,251.5,124.4,226.8z"/>
<path class="st1" d="M61.7,183.1c15.7,11.4,36.8,9.9,50.7-2.5c-4.3-7.6-9.5-14.5-15.6-20.6c-13-13-29.6-22.2-48.3-25.9
	C40.9,151.2,46,171.7,61.7,183.1z"/>
<path class="st1" d="M-52.5,180.6c13.9,12.4,35,13.9,50.7,2.5c15.7-11.4,20.8-31.9,13.3-48.9C-7.2,137.8-23.9,147-36.8,160
	C-42.9,166.1-48.2,173-52.5,180.6z"/>
<path class="st1" d="M-21.4,243.4c-6-18.4-23.9-29.6-42.4-27.8c-0.4,3.6-0.7,7.3-0.7,11.1c0,24.8,9.5,47.2,25.1,64.1
	C-23.4,281.5-15.4,261.9-21.4,243.4z"/>
</svg>
