<?xml version="1.0" encoding="utf-8"?>
<!-- Generator: Adobe Illustrator 19.1.0, SVG Export Plug-In . SVG Version: 6.00 Build 0)  -->
<!DOCTYPE svg PUBLIC "-//W3C//DTD SVG 1.1//EN" "http://www.w3.org/Graphics/SVG/1.1/DTD/svg11.dtd">
<svg version="1.1" id="Laag_1" xmlns="http://www.w3.org/2000/svg" xmlns:xlink="http://www.w3.org/1999/xlink" x="0px" y="0px"
	 width="512px" height="512px" viewBox="-223 25 512 512" style="enable-background:new -223 25 512 512;" xml:space="preserve">
<style type="text/css">
	.st0{fill:#FFFFFF;}
</style>
<path class="st0" d="M-24.8,461.1c-3.1,0.8-7.2,1.7-12.3,2.5c-5,0.9-10.6,1.3-16.6,1.3c-5.6,0-10.3-0.8-14.2-2.5
	c-3.8-1.6-6.9-3.9-9.1-6.7c-2.2-2.9-3.9-6.3-5-10.3c-1-4-1.4-8.4-1.4-13.1v-39.4h16.3v36.8c0,7.6,1,12.9,3.3,16.2s6,4.8,11.5,4.8
	c2,0,4-0.1,6.3-0.3c2.2-0.1,3.8-0.4,5-0.7v-56.8h16.3C-24.8,393.1-24.8,461.1-24.8,461.1z"/>
<path class="st0" d="M19.3,391.3c5.4,0,9.9,0.7,13.6,2s6.7,3.3,8.7,5.6c2.2,2.5,3.8,5.4,4.7,8.7c0.9,3.4,1.4,7.2,1.4,11.4v42.5
	c-2.5,0.5-6.3,1.2-11.4,2c-5.1,0.8-10.8,1.2-17.1,1.2c-4.2,0-8.1-0.4-11.6-1.2c-3.5-0.8-6.5-2.1-8.9-3.9c-2.5-1.8-4.4-4.2-5.7-7
	c-1.4-2.9-2.1-6.4-2.1-10.6c0-4,0.8-7.4,2.3-10.2c1.6-2.7,3.7-5.1,6.4-6.8c2.7-1.7,5.7-3,9.4-3.8c3.5-0.8,7.2-1.2,11.1-1.2
	c1.8,0,3.7,0.1,5.6,0.4c2,0.3,4,0.7,6.3,1.2v-2.7c0-1.8-0.3-3.7-0.7-5.4c-0.4-1.7-1.2-3.3-2.3-4.4c-1.2-1.3-2.6-2.3-4.4-3
	s-4.2-1-6.9-1c-3.8,0-7.2,0.3-10.3,0.8s-5.7,1.2-7.7,1.8l-2.1-13.1c2.1-0.7,5.1-1.4,9-2.1C10.7,391.6,14.9,391.3,19.3,391.3z
	 M20.6,451.8c5,0,8.9-0.3,11.5-0.8v-18c-0.9-0.3-2.2-0.5-3.9-0.8c-1.7-0.3-3.5-0.4-5.6-0.4c-1.8,0-3.7,0.1-5.5,0.4
	c-1.8,0.3-3.5,0.8-5,1.4c-1.4,0.8-2.6,1.7-3.5,3c-0.9,1.3-1.3,2.9-1.3,5c0,3.9,1.2,6.5,3.7,8C13.3,451.2,16.6,451.8,20.6,451.8z"/>
<path class="st0" d="M85.9,372.5c0,3-1,5.5-3,7.3c-2,1.8-4.3,2.7-7,2.7c-2.7,0-5.1-0.9-7.2-2.7c-2-1.8-3-4.2-3-7.3
	c0-3.1,1-5.6,3-7.4c2-1.8,4.3-2.7,7.2-2.7c2.7,0,5,0.9,7,2.7C84.8,366.8,85.9,369.3,85.9,372.5z M84,463.3H67.8v-70.2h16.3v70.2H84z
	"/>
<path class="st0" d="M122.9,463.3c-4.4-9.3-9.1-19.8-13.8-31.7c-4.7-12-9-24.8-12.9-38.5h17.4c1,3.9,2.1,8.2,3.4,12.7
	c1.3,4.6,2.7,9,4.2,13.6c1.4,4.6,3,8.9,4.6,13.2c1.6,4.3,3,8.1,4.4,11.5c1.3-3.4,2.7-7.2,4.3-11.5c1.6-4.3,3-8.6,4.6-13.2
	c1.4-4.6,2.9-9,4.3-13.6c1.3-4.6,2.5-8.7,3.5-12.7h16.8c-3.9,13.7-8.2,26.5-12.9,38.5c-4.7,12-9.4,22.6-13.8,31.7H122.9z"/>
<path class="st0" d="M169.9,428.4c0-6.1,0.9-11.6,2.7-16.3c1.8-4.7,4.3-8.5,7.3-11.6c3-3.1,6.5-5.5,10.4-7c3.9-1.6,8-2.3,12.1-2.3
	c9.7,0,17.2,3,22.6,9c5.5,6,8.1,15,8.1,26.9c0,0.9,0,2-0.1,3c0,1.2-0.1,2.1-0.3,3h-46.3c0.4,5.6,2.5,10,6,13.1
	c3.5,3.1,8.6,4.7,15.4,4.7c3.9,0,7.6-0.4,10.8-1c3.3-0.7,5.9-1.4,7.7-2.2l2.1,13.3c-0.9,0.4-2.1,0.9-3.7,1.4
	c-1.6,0.5-3.4,0.9-5.4,1.3c-2,0.4-4.2,0.8-6.5,1c-2.3,0.3-4.7,0.4-7.2,0.4c-6.1,0-11.6-0.9-16.2-2.7c-4.6-1.8-8.4-4.4-11.2-7.7
	c-3-3.3-5.1-7.2-6.5-11.6C170.7,438.6,169.9,433.8,169.9,428.4z M217.1,421.3c0-2.2-0.3-4.3-0.9-6.4c-0.7-2-1.6-3.8-2.7-5.2
	c-1.2-1.4-2.7-2.6-4.4-3.5c-1.7-0.9-3.8-1.3-6.3-1.3c-2.5,0-4.7,0.5-6.5,1.4c-1.8,0.9-3.5,2.2-4.8,3.7c-1.3,1.6-2.3,3.3-3,5.2
	c-0.7,2-1.2,4-1.4,6h30.1V421.3z"/>
<path class="st0" d="M-84.5,478.7c-7.7-7.4-14.4-14.6-20.6-22.4c3-3.4,5.4-7.4,7-12.3c1.7-4.8,2.6-10.3,2.6-16.2
	c0-5.9-0.9-11.4-2.6-16.2c-1.8-4.8-4.2-9-7.4-12.4c-3.1-3.4-6.9-6.1-11.4-8c-4.4-1.8-9.3-2.7-14.5-2.7c-5.2,0-10,0.9-14.5,2.7
	c-4.4,1.8-8.2,4.6-11.4,8c-3.3,3.4-5.7,7.6-7.4,12.4c-1.8,4.8-2.6,10.2-2.6,16.2c0,5.9,0.9,11.4,2.6,16.2c1.8,4.8,4.2,9,7.4,12.5
	c3.1,3.4,6.9,6.1,11.4,8c4.4,2,9.3,2.9,14.6,2.9c5.1,0,9.7-0.9,14-2.6c5.2,8.5,11.1,16.6,17.5,24.3
	C-93.6,485.2-90.3,483.1-84.5,478.7z M-144.9,445.8c-3.3-4.4-4.8-10.3-4.8-17.9c0-7.4,1.6-13.3,4.8-17.7c3.3-4.3,7.7-6.5,13.4-6.5
	c5.7,0,10.2,2.2,13.4,6.5c3.3,4.3,4.8,10.3,4.8,17.7c0,7.6-1.6,13.6-4.8,17.9c-3.3,4.4-7.7,6.7-13.4,6.7
	C-137.2,452.3-141.7,450.1-144.9,445.8z"/>
<path class="st0" d="M80.6,320.8C75.4,297,54.3,279.3,29,279.3s-46.5,17.7-51.7,41.5c15.7,7.3,33.1,11.4,51.7,11.4
	C47.4,332.1,64.8,328.1,80.6,320.8z"/>
<path class="st0" d="M152.3,208.7c0-5-0.3-9.8-0.9-14.5c-24.1-2.3-47.6,12.3-55.5,36.3c-7.8,24,2.6,49.6,23.5,61.9
	C139.9,270.4,152.3,241,152.3,208.7z"/>
<path class="st0" d="M70.5,151.6c20.5,14.9,48,12.9,66.2-3.3c-5.6-9.9-12.4-18.9-20.4-26.9c-17-17-38.8-29-63.2-33.8
	C43.3,110,50,136.8,70.5,151.6z"/>
<path class="st0" d="M-78.7,148.4c18.1,16.2,45.7,18.1,66.2,3.3S14.6,110,4.8,87.7c-24.4,4.8-46.2,16.8-63.2,33.8
	C-66.3,129.5-73.1,138.5-78.7,148.4z"/>
<path class="st0" d="M-38.1,230.5c-7.8-24-31.3-38.6-55.5-36.3c-0.5,4.7-0.9,9.5-0.9,14.5c0,32.4,12.4,61.7,32.8,83.8
	C-40.7,280.2-30.3,254.6-38.1,230.5z"/>
</svg>
