<?xml version="1.0" encoding="utf-8"?>
<!-- Generator: Adobe Illustrator 18.1.1, SVG Export Plug-In . SVG Version: 6.00 Build 0)  -->
<svg version="1.1" id="Layer_1" xmlns="http://www.w3.org/2000/svg" xmlns:xlink="http://www.w3.org/1999/xlink" x="0px" y="0px"
	 viewBox="202 245 45.9 24" enable-background="new 202 245 45.9 24" xml:space="preserve">
<path fill="#FFFFFF" d="M234,254.4c0,1-0.2,2.4-0.4,4c0.4,0.2,0.8,0.2,1.2,0.1c0.5-1.8,1.3-2.7,2.3-2.8l2.9,0l0,0.1
	c-2.3,3.8-4.6,7.2-7,10.5c-0.2,0.2-0.3,0.4-0.3,0.6c0,0.2,0.2,0.3,0.7,0.3l10.1,0.1c0.4-1.2,0.7-2.5,0.9-4c-0.2-0.1-0.6-0.1-1.2-0.1
	l-0.4,0.8c-0.4,0.8-0.8,1.3-1.2,1.6s-0.9,0.4-1.7,0.4h-2.8l0-0.1c0.9-1.2,2-2.8,3.2-4.7c1.2-1.9,2.4-3.7,3.5-5.5
	c0.3-0.6,0.5-0.9,0.5-1.1c0-0.1-0.1-0.2-0.3-0.2c0,0-0.2,0-0.6,0c-0.4,0-0.8,0-1.3,0c-0.5,0-0.8,0-1.1,0h-5.6c-0.3,0-0.5,0-0.7,0
	c-0.2,0-0.4-0.1-0.6-0.1c-0.2-0.1-0.3-0.1-0.4-0.1C234.1,254.3,234,254.3,234,254.4 M221.9,260.3c0.1,0,0.3,0,0.4,0
	c0.2,0,0.4,0.2,0.6,0.5c0.2,0.3,0.4,0.9,0.6,1.8c0.2,0.9,0.4,1.5,0.6,1.9c0.5,1.1,0.9,1.8,1.4,2.3c0.4,0.4,0.9,0.7,1.5,0.7
	c0.8,0,1.5-0.2,2.3-0.6c0.7-0.4,1.3-1,1.7-1.9c-0.3-0.3-0.6-0.5-0.9-0.5c-0.6,0.8-1.1,1.2-1.5,1.2c-0.3,0-0.4-0.1-0.6-0.3
	c-0.1-0.2-0.3-0.5-0.4-0.8c-0.5-1.6-0.9-2.7-1.2-3.2c-0.5-1-1.2-1.6-1.9-1.8l0-0.1l1.5-1.3c0.8-0.7,1.5-1,2.2-1
	c0.2,0,0.5,0.1,0.7,0.4c0.4,0.5,0.8,0.8,1.2,0.8c0.4,0,0.8-0.2,1.1-0.6c0.3-0.4,0.4-0.9,0.4-1.4c0-0.4-0.2-0.8-0.5-1.2
	c-0.3-0.3-0.8-0.5-1.4-0.5c-0.5,0-1.2,0.3-2.1,0.8c-0.9,0.5-1.9,1.3-2.9,2.1l-1.2,1c-0.6,0.5-1.1,0.8-1.5,0.9l2-8.9
	c0.3-1.4,0.4-2.1,0.4-2.4c0-0.6-0.3-1-0.9-1c-0.3,0-0.7,0-1.2,0.1c-0.6,0.1-1.2,0.2-2,0.3c-0.8,0.1-1.3,0.2-1.5,0.3
	c-0.2,0.4-0.2,0.7-0.1,1c0.9,0,1.5,0.1,1.8,0.4c0.2,0.2,0.2,0.8,0,1.8l-3.2,14.2c0,0.2-0.1,0.4-0.1,0.6c-0.1,0.3-0.1,0.4-0.1,0.6
	c0,0.2-0.1,0.3-0.1,0.4c0,0.3,0.1,0.5,0.4,0.6c0.3,0.1,0.8,0.2,1.5,0.2c0.3,0,0.5,0,0.7-0.1c0.2-0.1,0.4-0.2,0.5-0.2
	c0.1-0.1,0.2-0.2,0.3-0.4s0.2-0.4,0.2-0.5c0-0.1,0.1-0.3,0.1-0.6c0.1-0.3,0.1-0.5,0.1-0.5L221.9,260.3z M211.9,258.2
	c0.1-0.3,0.3-0.5,0.5-0.8c0.3-0.3,0.6-0.5,0.9-0.5c0.1,0,0.1,0,0.2,0c0,0,0.1,0.1,0.2,0.1c0.1,0,0.1,0.1,0.1,0.1
	c0,0,0.1,0.1,0.2,0.2c0.1,0.1,0.1,0.1,0.2,0.2c0.3,0.3,0.8,0.5,1.4,0.5c0.4,0,0.8-0.2,1.2-0.6s0.5-0.9,0.5-1.5
	c0-0.4-0.2-0.8-0.6-1.1c-0.4-0.3-0.8-0.5-1.3-0.5c-1,0-2.1,0.9-3.4,2.8h-0.1c0-0.6-0.1-1.3-0.2-2.3c0-0.3-0.3-0.5-0.7-0.5
	c-2.1,0.5-3.7,0.8-4.8,0.9c-0.1,0.3,0,0.6,0.1,0.9c0.8,0.1,1.3,0.2,1.5,0.5c0.2,0.2,0.3,0.8,0.3,1.6v5.4c0,1.2-0.1,1.9-0.3,2.1
	c-0.2,0.3-0.8,0.4-1.7,0.5c-0.1,0.1-0.1,0.3-0.1,0.5s0,0.4,0.1,0.5c1.6,0,2.9-0.1,4-0.1c1,0,2.3,0,3.9,0.1c0.1-0.1,0.1-0.2,0.1-0.5
	c0-0.3,0-0.4-0.1-0.5c-0.9-0.1-1.5-0.2-1.7-0.5c-0.2-0.3-0.3-1-0.3-2.1v-4.2C211.7,258.9,211.8,258.5,211.9,258.2"/>
</svg>
